<svg xmlns="http://www.w3.org/2000/svg" width="72" height="72" viewBox="0 0 72 72" fill="none">
<path d="M67.4562 24.6181C66.3312 22.4244 66.0499 22.1431 64.4187 20.2306C55.1937 9.26189 37.2499 4.98689 22.2312 10.9494C5.97492 17.4181 -1.33758 33.4494 5.63742 47.2869C10.9812 57.8619 23.0749 63.9931 36.0124 64.2744C43.8312 64.4431 50.1874 58.0869 50.1874 50.2681V44.6431C50.1874 41.5494 52.7187 39.0181 55.8124 39.0181H59.2999C60.8749 39.0181 62.2812 38.3994 63.6874 37.5556C68.1312 34.7994 69.6499 29.1744 67.4562 24.6181ZM38.5999 55.2744C35.3374 57.3556 30.9499 56.3431 28.9249 53.0806C26.8437 49.8181 27.8562 45.4306 31.1187 43.4056C34.3812 41.3244 38.7687 42.3369 40.7937 45.5994C42.8749 48.8619 41.8624 53.1931 38.5999 55.2744Z" fill="white"/>
<path d="M35.1568 57.6572C34.4818 57.6572 33.863 57.6009 33.188 57.4322C30.938 56.9259 28.9693 55.5197 27.7318 53.5509C25.2005 49.5009 26.438 44.1009 30.488 41.5697C34.538 39.0384 39.938 40.2759 42.5255 44.3259C45.0568 48.3759 43.8193 53.7759 39.7693 56.3634C38.363 57.2072 36.788 57.6572 35.1568 57.6572ZM35.1005 43.5947C34.1443 43.5947 33.1318 43.8759 32.288 44.3822C29.813 45.9572 29.0255 49.2759 30.6005 51.7509C31.3318 52.9322 32.5693 53.7759 33.9193 54.1134C35.3255 54.4509 36.7318 54.1697 37.9693 53.4384C40.4443 51.8634 41.2318 48.5447 39.6568 46.0697C38.6443 44.4947 36.9005 43.5947 35.1005 43.5947Z" fill="#444B54"/>
<path d="M36.3391 65.587C22.0516 65.587 10.1266 58.8933 4.44531 47.6995C1.12656 41.1183 0.676557 33.7495 3.26406 26.9433C6.24531 19.0683 13.0516 12.5433 21.8828 9.05579C37.1828 2.98078 56.1391 7.14329 65.9828 18.787L66.4891 19.4058C67.7266 20.812 68.1766 21.3745 69.2453 23.512C71.8328 28.9683 69.9766 35.437 64.8578 38.6433C63.5641 39.4308 61.8203 40.387 59.6266 40.387H56.1391C54.6203 40.387 53.1578 41.287 52.5391 42.6933C52.1453 43.537 51.1328 43.9308 50.2891 43.537C49.4453 43.1433 49.0516 42.1308 49.4453 41.287C50.6266 38.6995 53.2703 37.012 56.1391 37.012H59.6266C60.6391 37.012 61.7078 36.6183 63.1141 35.7745C66.7703 33.4683 68.1203 28.8558 66.2641 24.9745C65.3641 23.2308 65.1391 22.9495 64.0141 21.5995L63.5078 20.9808C54.4516 10.3495 37.1828 6.58079 23.1203 12.1495C15.1328 15.2995 9.05781 21.1495 6.41406 28.1245C4.16406 34.0308 4.55781 40.4433 7.42656 46.1808C12.4891 56.2495 23.2891 62.212 36.3391 62.212C42.4703 62.212 47.7016 57.8808 48.6578 51.9745C48.8266 51.0745 49.6703 50.4558 50.6266 50.5683C51.5266 50.737 52.1453 51.5808 52.0328 52.537C50.7391 60.0745 44.1578 65.587 36.3391 65.587Z" fill="#444B54"/>
<path d="M45.2227 24.7983C48.1963 22.9325 49.0944 19.0094 47.2286 16.0358C45.3629 13.0622 41.4398 12.1642 38.4662 14.0299C35.4926 15.8957 34.5945 19.8188 36.4603 22.7924C38.3261 25.766 42.2491 26.664 45.2227 24.7983Z" fill="#FF9C9C"/>
<path d="M59.2852 32.1108C62.2588 30.245 63.1569 26.3219 61.2911 23.3483C59.4254 20.3747 55.5023 19.4767 52.5287 21.3424C49.5551 23.2082 48.657 27.1313 50.5228 30.1049C52.3886 33.0785 56.3116 33.9765 59.2852 32.1108Z" fill="#A1B0FF"/>
<path d="M29.4102 27.2768C32.3838 25.411 33.2819 21.4879 31.4161 18.5144C29.5504 15.5408 25.6273 14.6427 22.6537 16.5085C19.6801 18.3742 18.782 22.2973 20.6478 25.2709C22.5136 28.2445 26.4366 29.1425 29.4102 27.2768Z" fill="#FFC8A1"/>
<path d="M18.793 39.7084C21.7666 37.8427 22.6647 33.9196 20.7989 30.946C18.9332 27.9724 15.0101 27.0743 12.0365 28.9401C9.06292 30.8059 8.16484 34.7289 10.0306 37.7025C11.8964 40.6761 15.8194 41.5742 18.793 39.7084Z" fill="#8DF9C2"/>
</svg>