<svg width="20" height="24" viewBox="0 0 20 24" fill="none" xmlns="http://www.w3.org/2000/svg">
<path d="M19.6439 11.7248L17.876 10.0532V7.68856C17.876 7.31552 17.7277 6.95775 17.4638 6.69397C17.1998 6.43018 16.8418 6.28199 16.4685 6.28199H13.871L10.682 3.2718C10.4986 3.09732 10.2552 3 10.002 3C9.74882 3 9.50536 3.09732 9.32203 3.2718L0.360059 11.7248C0.19046 11.8865 0.0737351 12.0957 0.0251977 12.3249C-0.0233397 12.5541 -0.0014232 12.7925 0.0880723 13.0091C0.157421 13.2052 0.285142 13.3754 0.45409 13.4968C0.623039 13.6183 0.825127 13.6852 1.03323 13.6886H2.73994V21H7.59491V16.3522C7.59491 15.7142 7.84851 15.1024 8.29993 14.6513C8.75134 14.2002 9.3636 13.9468 10.002 13.9468C10.6404 13.9468 11.2526 14.2002 11.7041 14.6513C12.1555 15.1024 12.4091 15.7142 12.4091 16.3522V21H17.264V13.675H18.9708C19.1789 13.6716 19.3809 13.6047 19.5499 13.4832C19.7188 13.3618 19.8466 13.1916 19.9159 12.9955C20.0024 12.7807 20.0227 12.545 19.9743 12.3186C19.9258 12.0922 19.8108 11.8854 19.6439 11.7248Z" fill="#C6C6C6"/>
</svg>
