<svg width="41" height="41" viewBox="0 0 41 41" fill="none" xmlns="http://www.w3.org/2000/svg">
<g clip-path="url(#clip0_6857_27616)">
<path d="M32.0734 30.9473H9.35211C9.02389 30.9473 8.75781 31.2528 8.75781 31.6297V33.658C8.75781 34.035 9.02389 34.3405 9.35211 34.3405H32.0734C32.4016 34.3405 32.6677 34.035 32.6677 33.658V31.6297C32.6677 31.2528 32.4016 30.9473 32.0734 30.9473Z" fill="#3A3B53"/>
<path fill-rule="evenodd" clip-rule="evenodd" d="M20.7123 13.4551C25.1292 13.4551 28.7449 17.0707 28.7449 21.4915V29.6966H12.6797V21.4915C12.6797 17.0707 16.2953 13.4551 20.7123 13.4551ZM19.7269 17.5193H21.6977C21.8395 17.5193 21.9584 17.6382 21.9584 17.78V21.1963H25.3746C25.5165 21.1963 25.6354 21.3151 25.6354 21.457V23.4278C25.6354 23.5735 25.5165 23.6923 25.3746 23.6923H21.9584V27.1047C21.9584 27.2504 21.8395 27.3655 21.6977 27.3655H19.7269C19.5812 27.3655 19.4662 27.2504 19.4662 27.1047V23.6923H16.0499C15.9081 23.6923 15.7892 23.5735 15.7892 23.4278V21.457C15.7892 21.3151 15.9081 21.1963 16.0499 21.1963H19.4662V17.78C19.4662 17.6382 19.5812 17.5193 19.7269 17.5193Z" fill="#FF1616"/>
<path fill-rule="evenodd" clip-rule="evenodd" d="M20.7118 5.66406C21.1643 5.66406 21.5362 6.03214 21.5362 6.48841V10.4491C21.5362 10.9015 21.1643 11.2735 20.7118 11.2735C20.2594 11.2735 19.8875 10.9015 19.8875 10.4491V6.48841C19.8875 6.03214 20.2594 5.66406 20.7118 5.66406ZM4.75016 17.2586C4.89203 16.8253 5.3598 16.5876 5.79306 16.7295L9.55822 17.9526C9.99148 18.0906 10.2292 18.5584 10.0873 18.9916C9.9493 19.4211 9.48153 19.6626 9.04827 19.5208L5.28311 18.2977C4.84985 18.1558 4.61213 17.688 4.75016 17.2586ZM10.8465 8.8656C11.2146 8.60104 11.7322 8.68156 12.0006 9.04964L14.3279 12.255C14.5963 12.6193 14.512 13.1407 14.1477 13.4053C13.7796 13.6736 13.262 13.5893 12.9936 13.225L10.6663 10.0197C10.3979 9.6516 10.4823 9.13399 10.8465 8.8656ZM36.6696 17.2586C36.8115 17.688 36.5738 18.1558 36.1405 18.2977L32.3754 19.5208C31.9421 19.6626 31.4743 19.4211 31.3363 18.9916C31.1944 18.5584 31.4322 18.0906 31.8654 17.9526L35.6306 16.7295C36.0638 16.5876 36.5316 16.8253 36.6696 17.2586ZM30.5733 8.8656C30.9414 9.13399 31.0257 9.6516 30.7574 10.0197L28.43 13.225C28.1616 13.5893 27.644 13.6736 27.2759 13.4053C26.9117 13.1407 26.8273 12.6193 27.0957 12.255L29.4231 9.04964C29.6876 8.68156 30.2091 8.60104 30.5733 8.8656Z" fill="#427DB8"/>
</g>
<defs>
<clipPath id="clip0_6857_27616">
<rect width="32" height="32" fill="white" transform="translate(4.71094 4)"/>
</clipPath>
</defs>
</svg>
