<svg xmlns="http://www.w3.org/2000/svg" width="25" height="25" viewBox="0 0 25 25" fill="none">
<g clip-path="url(#clip0_5565_54890)">
<path d="M17.681 2.37875C16.704 1.64604 15.5157 1.24997 14.2944 1.25H11.3072C10.0859 1.24997 8.89757 1.64604 7.92053 2.37875C7.45642 2.72691 7.07973 3.17833 6.82029 3.69728C6.56085 4.21622 6.42578 4.78844 6.42578 5.36862C6.42567 6.10635 6.64411 6.82757 7.05353 7.44125L7.92578 8.75V7.625H9.16028C9.91616 7.62495 10.6571 7.41443 11.3001 7.01704C11.9431 6.61964 12.4627 6.05106 12.8008 5.375C13.1389 6.05106 13.6585 6.61964 14.3015 7.01704C14.9445 7.41443 15.6854 7.62495 16.4413 7.625H17.6758V8.75L18.548 7.44125C18.9575 6.82757 19.1759 6.10635 19.1758 5.36862C19.1758 4.78844 19.0407 4.21622 18.7813 3.69728C18.5218 3.17833 18.1451 2.72691 17.681 2.37875Z" fill="#F4B2B0"/>
<path d="M18.9928 16.9528L15.4258 15.6151V14.7901C16.5842 14.119 17.4437 13.032 17.8295 11.75H17.8633C18.2686 11.7494 18.6601 11.6026 18.9658 11.3365C19.2716 11.0703 19.471 10.7028 19.5274 10.3015C19.5839 9.90009 19.4936 9.49183 19.2732 9.15169C19.0527 8.81155 18.717 8.56239 18.3275 8.45L18.86 7.65125C19.4438 6.77655 19.6701 5.71143 19.4926 4.67493C19.3151 3.63843 18.7472 2.70935 17.9057 2.07875C16.8625 1.29969 15.596 0.877579 14.294 0.875H11.3075C10.0056 0.877579 8.73908 1.29969 7.69591 2.07875C6.85488 2.7093 6.2873 3.63802 6.1098 4.67408C5.9323 5.71014 6.15836 6.77483 6.74153 7.64937L7.27403 8.44812C6.88304 8.55925 6.54549 8.80813 6.32372 9.14878C6.10195 9.48942 6.01096 9.89882 6.06755 10.3013C6.12415 10.7038 6.3245 11.0723 6.63161 11.3386C6.93871 11.6049 7.33181 11.751 7.73828 11.75H7.77203C8.15798 13.0318 9.01743 14.1187 10.1758 14.7897V15.6147L6.60878 16.9524C5.89538 17.2225 5.2808 17.7028 4.84635 18.3299C4.41191 18.9569 4.17807 19.701 4.17578 20.4639V23.75C4.17578 23.8495 4.21529 23.9448 4.28562 24.0152C4.35594 24.0855 4.45133 24.125 4.55078 24.125H21.0508C21.1502 24.125 21.2456 24.0855 21.3159 24.0152C21.3863 23.9448 21.4258 23.8495 21.4258 23.75V20.4639C21.4234 19.7011 21.1895 18.957 20.7551 18.3301C20.3207 17.7031 19.7061 17.2228 18.9928 16.9528ZM15.6343 16.4945L14.5217 18.7201L13.4057 18.05L15.1449 16.3107L15.6343 16.4945ZM17.3008 8.59475L16.0205 9.875H9.58103L8.30078 8.59475V8H9.16028C9.87493 8.00257 10.5795 7.83169 11.2136 7.50204C11.8477 7.17239 12.3923 6.69381 12.8008 6.10738C13.2092 6.69381 13.7539 7.17239 14.3879 7.50204C15.022 7.83169 15.7266 8.00257 16.4413 8H17.3008V8.59475ZM9.80078 10.625H15.8008V13.5946C14.9785 14.3382 13.9094 14.75 12.8008 14.75C11.6922 14.75 10.623 14.3382 9.80078 13.5946V10.625ZM16.5508 12.7321V10.4071L17.3008 9.65713V10.25C17.3013 11.1333 17.0404 11.9969 16.5508 12.7321ZM18.8008 10.0625C18.7998 10.288 18.7176 10.5055 18.5692 10.6753C18.4209 10.845 18.2163 10.9557 17.993 10.9869C18.0296 10.7429 18.0489 10.4967 18.0508 10.25V9.14412C18.2625 9.18734 18.4527 9.30234 18.5894 9.46969C18.7261 9.63703 18.8007 9.84644 18.8008 10.0625ZM8.14553 2.67875C9.05892 1.99686 10.1677 1.62736 11.3075 1.625H14.294C15.4339 1.62736 16.5426 1.99686 17.456 2.67875C18.1435 3.19444 18.6074 3.95381 18.7525 4.80089C18.8976 5.64797 18.7128 6.51844 18.236 7.2335L18.0332 7.538C18.0147 7.45676 17.9694 7.38411 17.9046 7.33184C17.8397 7.27956 17.7591 7.25073 17.6758 7.25H16.4413C15.7549 7.25195 15.0817 7.06164 14.4979 6.70062C13.9142 6.33961 13.4432 5.82233 13.1383 5.20738C13.1036 5.14926 13.0545 5.10114 12.9957 5.06772C12.9368 5.0343 12.8703 5.01673 12.8027 5.01673C12.735 5.01673 12.6685 5.0343 12.6097 5.06772C12.5508 5.10114 12.5017 5.14926 12.467 5.20738C12.1619 5.8229 11.6903 6.34057 11.1058 6.70162C10.5213 7.06267 9.84729 7.25265 9.16028 7.25H7.92578C7.84248 7.25073 7.76186 7.27956 7.697 7.33184C7.63213 7.38411 7.58682 7.45676 7.56841 7.538L7.36553 7.2335C6.88881 6.51844 6.70399 5.64797 6.84906 4.80089C6.99412 3.95381 7.45804 3.19444 8.14553 2.67875ZM6.80078 10.0625C6.80082 9.84644 6.87549 9.63703 7.01216 9.46969C7.14882 9.30234 7.33909 9.18734 7.55078 9.14412V10.25C7.55268 10.4967 7.57198 10.7429 7.60853 10.9869C7.38524 10.9557 7.18068 10.845 7.03232 10.6753C6.88397 10.5055 6.80177 10.288 6.80078 10.0625ZM8.30078 9.65525L9.05078 10.4052V12.7302C8.56155 11.9956 8.3006 11.1326 8.30078 10.25V9.65525ZM12.8008 15.5C13.4421 15.499 14.0778 15.3797 14.6758 15.1479V15.7197L12.8008 17.5947L10.9258 15.7197V15.1479C11.5238 15.3797 12.1594 15.499 12.8008 15.5ZM10.4567 16.3111L12.1959 18.05L11.0799 18.7197L9.96728 16.4941L10.4567 16.3111ZM20.6758 23.375H18.4258V20.375H17.6758V23.375H7.92578V20.375H7.17578V23.375H4.92578V20.4639C4.92772 19.8537 5.11487 19.2584 5.46246 18.7569C5.81005 18.2554 6.30171 17.8712 6.87241 17.6551L9.26116 16.7593L10.5902 19.4176C10.6133 19.4639 10.6458 19.5049 10.6855 19.538C10.7253 19.5711 10.7715 19.5956 10.8212 19.61C10.8551 19.62 10.8904 19.6251 10.9258 19.625C10.9938 19.625 11.0606 19.6064 11.1189 19.5714L12.8008 18.5623L14.4827 19.5714C14.541 19.6064 14.6077 19.625 14.6758 19.625C14.7112 19.625 14.7464 19.62 14.7804 19.61C14.8301 19.5956 14.8763 19.5711 14.916 19.538C14.9558 19.5049 14.9883 19.4639 15.0114 19.4176L16.3404 16.7593L18.7292 17.6551C19.2998 17.8712 19.7915 18.2554 20.1391 18.7569C20.4867 19.2584 20.6738 19.8537 20.6758 20.4639V23.375Z" fill="#B3404A"/>
<path d="M15.0508 11.375H10.5508V12.125H15.0508V11.375Z" fill="#B3404A"/>
<path d="M15.0508 12.875H10.5508V13.625H15.0508V12.875Z" fill="#B3404A"/>
<path d="M20.6758 12.5C20.4533 12.5 20.2358 12.566 20.0508 12.6896C19.8658 12.8132 19.7216 12.9889 19.6364 13.1945C19.5513 13.4001 19.529 13.6262 19.5724 13.8445C19.6158 14.0627 19.723 14.2632 19.8803 14.4205C20.0376 14.5778 20.2381 14.685 20.4563 14.7284C20.6745 14.7718 20.9007 14.7495 21.1063 14.6644C21.3119 14.5792 21.4876 14.435 21.6112 14.25C21.7348 14.065 21.8008 13.8475 21.8008 13.625C21.8008 13.3266 21.6823 13.0405 21.4713 12.8295C21.2603 12.6185 20.9742 12.5 20.6758 12.5ZM20.6758 14C20.6016 14 20.5291 13.978 20.4674 13.9368C20.4058 13.8956 20.3577 13.837 20.3293 13.7685C20.3009 13.7 20.2935 13.6246 20.308 13.5518C20.3225 13.4791 20.3582 13.4123 20.4106 13.3598C20.4631 13.3074 20.5299 13.2717 20.6026 13.2572C20.6754 13.2427 20.7508 13.2502 20.8193 13.2785C20.8878 13.3069 20.9464 13.355 20.9876 13.4167C21.0288 13.4783 21.0508 13.5508 21.0508 13.625C21.0508 13.7245 21.0113 13.8198 20.9409 13.8902C20.8706 13.9605 20.7752 14 20.6758 14ZM21.4258 9.125C21.6483 9.125 21.8658 9.05902 22.0508 8.9354C22.2358 8.81179 22.38 8.63609 22.4651 8.43052C22.5503 8.22495 22.5726 7.99875 22.5292 7.78052C22.4858 7.5623 22.3786 7.36184 22.2213 7.20451C22.0639 7.04717 21.8635 6.94003 21.6453 6.89662C21.427 6.85321 21.2008 6.87549 20.9953 6.96064C20.7897 7.04578 20.614 7.18998 20.4904 7.37498C20.3668 7.55999 20.3008 7.7775 20.3008 8C20.3008 8.29837 20.4193 8.58452 20.6303 8.7955C20.8413 9.00647 21.1274 9.125 21.4258 9.125ZM21.4258 7.625C21.4999 7.625 21.5725 7.64699 21.6341 7.6882C21.6958 7.7294 21.7439 7.78797 21.7722 7.85649C21.8006 7.92502 21.808 8.00042 21.7936 8.07316C21.7791 8.1459 21.7434 8.21272 21.6909 8.26517C21.6385 8.31761 21.5717 8.35333 21.4989 8.3678C21.4262 8.38226 21.3508 8.37484 21.2823 8.34646C21.2138 8.31807 21.1552 8.27001 21.114 8.20834C21.0728 8.14667 21.0508 8.07417 21.0508 8C21.0508 7.90054 21.0903 7.80516 21.1606 7.73484C21.2309 7.66451 21.3263 7.625 21.4258 7.625Z" fill="#B3404A"/>
<path d="M22.66 10.3595L21.9102 11.1094L22.4405 11.6397L23.1904 10.8898L22.66 10.3595Z" fill="#B3404A"/>
<path d="M6.05078 13.625C6.05078 13.4025 5.9848 13.185 5.86118 13C5.73757 12.815 5.56187 12.6708 5.3563 12.5856C5.15073 12.5005 4.92453 12.4782 4.7063 12.5216C4.48808 12.565 4.28762 12.6722 4.13029 12.8295C3.97295 12.9868 3.86581 13.1873 3.8224 13.4055C3.77899 13.6238 3.80127 13.85 3.88642 14.0555C3.97157 14.2611 4.11576 14.4368 4.30076 14.5604C4.48577 14.684 4.70328 14.75 4.92578 14.75C5.22415 14.75 5.5103 14.6315 5.72128 14.4205C5.93226 14.2095 6.05078 13.9234 6.05078 13.625ZM4.55078 13.625C4.55078 13.5508 4.57277 13.4783 4.61398 13.4167C4.65519 13.355 4.71375 13.3069 4.78227 13.2785C4.8508 13.2502 4.9262 13.2427 4.99894 13.2572C5.07168 13.2717 5.1385 13.3074 5.19095 13.3598C5.24339 13.4123 5.27911 13.4791 5.29358 13.5518C5.30805 13.6246 5.30062 13.7 5.27224 13.7685C5.24385 13.837 5.19579 13.8956 5.13412 13.9368C5.07245 13.978 4.99995 14 4.92578 14C4.82633 14 4.73094 13.9605 4.66062 13.8902C4.59029 13.8198 4.55078 13.7245 4.55078 13.625ZM4.17578 9.125C4.39829 9.125 4.61579 9.05902 4.8008 8.9354C4.9858 8.81179 5.13 8.63609 5.21515 8.43052C5.30029 8.22495 5.32257 7.99875 5.27916 7.78052C5.23576 7.5623 5.12861 7.36184 4.97128 7.20451C4.81394 7.04717 4.61349 6.94003 4.39526 6.89662C4.17703 6.85321 3.95083 6.87549 3.74526 6.96064C3.5397 7.04578 3.36399 7.18998 3.24038 7.37498C3.11676 7.55999 3.05078 7.7775 3.05078 8C3.05078 8.29837 3.16931 8.58452 3.38029 8.7955C3.59126 9.00647 3.87741 9.125 4.17578 9.125ZM4.17578 7.625C4.24995 7.625 4.32245 7.64699 4.38412 7.6882C4.44579 7.7294 4.49385 7.78797 4.52224 7.85649C4.55062 7.92502 4.55805 8.00042 4.54358 8.07316C4.52911 8.1459 4.49339 8.21272 4.44095 8.26517C4.3885 8.31761 4.32168 8.35333 4.24894 8.3678C4.1762 8.38226 4.1008 8.37484 4.03227 8.34646C3.96375 8.31807 3.90519 8.27001 3.86398 8.20834C3.82277 8.14667 3.80078 8.07417 3.80078 8C3.80078 7.90054 3.84029 7.80516 3.91062 7.73484C3.98094 7.66451 4.07633 7.625 4.17578 7.625Z" fill="#B3404A"/>
<path d="M2.94049 10.3603L2.41016 10.8906L3.16004 11.6405L3.69037 11.1102L2.94049 10.3603Z" fill="#B3404A"/>
</g>
<defs>
<clipPath id="clip0_5565_54890">
<rect width="24" height="24" fill="white" transform="translate(0.800781 0.5)"/>
</clipPath>
</defs>
</svg>