<svg width="40" height="25" viewBox="0 0 40 25" fill="none" xmlns="http://www.w3.org/2000/svg">
<g clip-path="url(#clip0_6978_26512)">
<path d="M14.3711 17.4052C14.4611 17.1339 14.6345 16.898 14.8667 16.7313C15.0988 16.5645 15.3777 16.4755 15.6636 16.4769L15.7911 16.6947C15.9045 16.887 16.0659 17.0465 16.2595 17.1576C16.4531 17.2687 16.6723 17.3275 16.8955 17.3282C17.1196 17.3282 17.3398 17.2692 17.534 17.1572C17.7282 17.0452 17.8895 16.8841 18.0018 16.6901C18.1141 16.4961 18.1735 16.276 18.1739 16.0519C18.1743 15.8277 18.1157 15.6074 18.0041 15.413C17.8925 15.2186 17.7318 15.0569 17.538 14.9442C17.3442 14.8315 17.1242 14.7717 16.9001 14.7709C16.6759 14.77 16.4555 14.8281 16.2609 14.9393C16.0662 15.0505 15.9042 15.2109 15.7911 15.4045L15.6636 15.6211C15.3774 15.6209 15.0983 15.5317 14.865 15.366C14.6327 15.2001 14.4597 14.9642 14.3711 14.6928C14.2994 14.4736 14.2108 14.2603 14.1061 14.0549C13.9795 13.8001 13.9367 13.512 13.9837 13.2315C14.0307 12.951 14.1652 12.6925 14.3678 12.493L14.612 12.5568C14.8838 12.6282 15.1715 12.6083 15.4307 12.4999C15.6899 12.3915 15.9062 12.2008 16.0463 11.9572C16.1863 11.7136 16.2421 11.4307 16.2053 11.1521C16.1684 10.8736 16.0409 10.6149 15.8423 10.4161C15.6437 10.2173 15.3852 10.0895 15.1067 10.0523C14.8282 10.0151 14.5453 10.0706 14.3015 10.2103C14.0577 10.35 13.8667 10.5661 13.758 10.8252C13.6494 11.0843 13.629 11.372 13.7002 11.6438L13.7629 11.888C13.5062 12.146 13.1577 12.2915 12.7939 12.2928C12.5882 12.2929 12.3854 12.2443 12.2021 12.1509C11.9965 12.0455 11.7828 11.9569 11.563 11.8858C11.2919 11.7956 11.0562 11.6221 10.8895 11.39C10.7228 11.1579 10.6336 10.8791 10.6347 10.5934V9.49236L10.8239 9.38127C10.9999 9.28149 11.1504 9.14225 11.2636 8.9745C11.3768 8.80674 11.4495 8.61504 11.4761 8.41443C11.5039 8.18544 11.4691 7.95321 11.3755 7.74236C11.282 7.53151 11.1331 7.34991 10.9448 7.21679C10.7564 7.08367 10.5355 7.004 10.3055 6.98622C10.0755 6.96845 9.84502 7.01323 9.63842 7.11582C9.43182 7.2184 9.25682 7.37498 9.13198 7.56895C9.00714 7.76291 8.93711 7.98704 8.9293 8.21758C8.9215 8.44811 8.97621 8.67647 9.08765 8.87843C9.19908 9.0804 9.36308 9.24845 9.56227 9.36478L9.77895 9.49237V10.5934C9.78005 10.8791 9.69089 11.1579 9.52419 11.39C9.35749 11.6221 9.12175 11.7956 8.85062 11.8858C8.63126 11.9571 8.41793 12.0457 8.21266 12.1509C7.95783 12.2773 7.66959 12.3199 7.38909 12.2727C7.10859 12.2255 6.85019 12.0908 6.65077 11.888L6.71456 11.6438C6.78573 11.3721 6.76546 11.0846 6.65688 10.8255C6.54831 10.5665 6.35747 10.3504 6.11385 10.2107C5.87022 10.071 5.58737 10.0153 5.30896 10.0524C5.03056 10.0894 4.7721 10.2171 4.57351 10.4157C4.37491 10.6143 4.24723 10.8728 4.21017 11.1512C4.17312 11.4296 4.22877 11.7124 4.36851 11.956C4.50825 12.1997 4.72432 12.3905 4.98335 12.4991C5.24237 12.6076 5.52993 12.6279 5.80163 12.5568L6.04581 12.493C6.3038 12.75 6.44936 13.0989 6.45058 13.4631C6.4507 13.6688 6.40207 13.8716 6.30869 14.0549C6.20306 14.2599 6.1144 14.4733 6.04361 14.6928C5.95341 14.9639 5.7799 15.1997 5.54782 15.3664C5.31574 15.5331 5.03694 15.6222 4.7512 15.6211H3.65018L3.52258 15.4045C3.38087 15.162 3.16327 14.973 2.90339 14.8666C2.64352 14.7602 2.35584 14.7423 2.08479 14.8157C1.81373 14.8891 1.5744 15.0497 1.40374 15.2727C1.23309 15.4957 1.14062 15.7687 1.14062 16.0496C1.14062 16.3304 1.23309 16.6034 1.40374 16.8264C1.5744 17.0494 1.81373 17.21 2.08479 17.2834C2.35584 17.3569 2.64352 17.339 2.90339 17.2325C3.16327 17.1261 3.38087 16.9371 3.52258 16.6947L3.65018 16.4769H4.7512C5.03695 16.4758 5.31574 16.5649 5.54782 16.7316C5.7799 16.8984 5.95341 17.1341 6.04361 17.4052C6.11467 17.625 6.20332 17.8387 6.30869 18.0443C6.43507 18.2989 6.47769 18.587 6.43048 18.8673C6.38326 19.1477 6.24862 19.4059 6.04581 19.6051L5.80163 19.5413C5.52976 19.47 5.24197 19.4902 4.98273 19.5987C4.72348 19.7073 4.50721 19.8983 4.36732 20.142C4.22743 20.3858 4.1717 20.6689 4.20876 20.9475C4.24581 21.2261 4.37358 21.4848 4.57232 21.6835C4.77107 21.8823 5.02973 22.01 5.30834 22.0471C5.58695 22.0841 5.87002 22.0284 6.1138 21.8885C6.35758 21.7486 6.54851 21.5324 6.65709 21.2731C6.76568 21.0139 6.78588 20.7261 6.71456 20.4542L6.65077 20.21C6.90769 19.9526 7.25612 19.8075 7.6198 19.8064C7.82585 19.8062 8.029 19.8549 8.21266 19.9482C8.41814 20.053 8.63143 20.1416 8.85062 20.2133C9.12184 20.3034 9.35766 20.4769 9.52438 20.709C9.69111 20.9411 9.78021 21.22 9.77895 21.5057L9.59196 21.6157C9.40206 21.7239 9.24209 21.8777 9.12648 22.0632C9.01088 22.2487 8.94329 22.4601 8.92982 22.6783C8.91933 22.9047 8.96923 23.1299 9.07441 23.3307C9.17959 23.5315 9.33626 23.7008 9.52837 23.8211C9.72049 23.9415 9.94115 24.0086 10.1677 24.0156C10.3943 24.0226 10.6187 23.9692 10.8179 23.861C11.0171 23.7527 11.1839 23.5935 11.3013 23.3995C11.4187 23.2056 11.4824 22.9839 11.4859 22.7573C11.4894 22.5306 11.4326 22.3071 11.3213 22.1096C11.21 21.9121 11.0482 21.7477 10.8525 21.6333L10.6347 21.5057C10.6342 21.2198 10.7235 20.9409 10.8899 20.7083C11.0554 20.4754 11.2914 20.3019 11.563 20.2133C11.7826 20.1418 11.9963 20.0532 12.2021 19.9482C12.4567 19.822 12.7446 19.7793 13.0249 19.8263C13.3052 19.8733 13.5634 20.0076 13.7629 20.21L14.5405 20.9888L14.4778 21.2319C14.4065 21.5036 14.4266 21.7912 14.535 22.0504C14.6435 22.3095 14.8343 22.5258 15.0779 22.6656C15.3216 22.8055 15.6045 22.8612 15.883 22.8242C16.1615 22.7872 16.42 22.6595 16.6187 22.4609C16.8173 22.2622 16.945 22.0037 16.982 21.7252C17.019 21.4467 16.9633 21.1638 16.8234 20.9201C16.6836 20.6765 16.4674 20.4857 16.2082 20.3772C15.9491 20.2687 15.6614 20.2486 15.3897 20.32L15.1455 20.3827L14.3678 19.6051C14.1652 19.4058 14.0307 19.1475 13.9837 18.8672C13.9367 18.5868 13.9795 18.2988 14.1061 18.0443C14.211 17.8385 14.2996 17.6248 14.3711 17.4052ZM8.44366 15.1944C8.27974 15.1945 8.11946 15.146 7.98311 15.055C7.84675 14.964 7.74044 14.8347 7.67761 14.6833C7.61478 14.5319 7.59825 14.3652 7.63012 14.2044C7.662 14.0436 7.74083 13.8959 7.85667 13.7799C7.9725 13.6639 8.12012 13.5849 8.28087 13.5528C8.44162 13.5207 8.60827 13.537 8.75976 13.5997C8.91124 13.6623 9.04075 13.7684 9.13191 13.9047C9.22307 14.0409 9.27179 14.2011 9.2719 14.365C9.27199 14.5848 9.18479 14.7957 9.02947 14.9512C8.87416 15.1067 8.66345 15.1942 8.44366 15.1944ZM10.1012 18.658C9.88951 18.6583 9.68249 18.5957 9.50635 18.4782C9.33021 18.3607 9.19286 18.1937 9.11169 17.9981C9.03052 17.8026 9.00917 17.5874 9.05034 17.3797C9.09151 17.172 9.19336 16.9812 9.34299 16.8314C9.49262 16.6817 9.68331 16.5796 9.89094 16.5382C10.0986 16.4968 10.3138 16.518 10.5094 16.5989C10.7051 16.6799 10.8723 16.8171 10.9899 16.9931C11.1076 17.1691 11.1704 17.3761 11.1704 17.5878C11.1704 17.8715 11.0578 18.1436 10.8573 18.3442C10.6569 18.5449 10.3849 18.6578 10.1012 18.658ZM11.9128 15.8422C11.7847 15.8422 11.6594 15.8042 11.5529 15.733C11.4463 15.6619 11.3633 15.5607 11.3143 15.4423C11.2652 15.3239 11.2524 15.1937 11.2774 15.068C11.3024 14.9423 11.3641 14.8269 11.4547 14.7363C11.5453 14.6457 11.6607 14.584 11.7864 14.559C11.9121 14.534 12.0424 14.5468 12.1607 14.5958C12.2791 14.6449 12.3803 14.7279 12.4515 14.8344C12.5227 14.941 12.5607 15.0662 12.5607 15.1944C12.5606 15.3662 12.4923 15.5309 12.3708 15.6524C12.2493 15.7738 12.0846 15.8421 11.9128 15.8422Z" fill="white"/>
</g>
<path fill-rule="evenodd" clip-rule="evenodd" d="M37.5126 13.873C38.3909 13.681 39.3077 14.1226 39.7397 14.953C39.8597 15.1834 39.7733 15.4666 39.5477 15.5914L39.5448 15.593C39.4344 15.6555 36.4976 17.3179 35.271 18.9849C34.1142 20.5545 32.5974 22.508 31.1239 23.7032C30.657 24.0816 30.0964 24.335 29.4957 24.4421C29.3508 24.2123 29.1767 24.0038 29.0202 23.8204L28.9332 23.7189L28.9332 23.7189C28.7328 23.4853 28.5612 23.2854 28.4324 23.0763L28.432 23.0756C28.1837 22.6741 28.0918 22.1982 28.0884 21.6511C28.0856 21.1787 28.1475 20.6923 28.2124 20.1831L28.2124 20.1829C28.2238 20.0933 28.2353 20.0031 28.2465 19.912C28.3221 19.302 28.3558 18.6079 28.2375 17.9543C28.1186 17.2971 27.8388 16.6447 27.2584 16.1777L27.2582 16.1775C26.8196 15.825 26.3108 15.6635 25.8335 15.5653C25.5945 15.5161 25.3523 15.4809 25.1249 15.4484L25.083 15.4424C24.8667 15.4115 24.6645 15.3827 24.4684 15.3452C23.9252 15.2406 23.3986 15.0589 22.8332 14.8638L22.73 14.8282C22.1376 14.6241 21.5026 14.4109 20.8295 14.3091C20.6361 14.2799 20.4361 14.2703 20.2543 14.2704L17.7513 8.14668C17.4969 7.53229 17.7705 6.82671 18.3657 6.53871C18.9609 6.25072 19.6809 6.47631 20.0073 7.0475L21.9368 10.441C21.6248 8.43468 21.2312 5.73712 21.092 4.04275C21.0392 3.37557 21.4952 2.78997 22.1528 2.67958C22.8392 2.56438 23.4824 3.01077 23.6168 3.69236C24.1016 6.19312 24.6248 8.27628 25.1048 9.63466L25.628 1.81559C25.676 1.1196 26.2135 0.567614 26.9047 0.505215C27.3031 0.471615 27.6919 0.601213 27.9847 0.870008C28.2775 1.134 28.4455 1.5132 28.4455 1.91159V9.19307L30.9319 3.43316C31.0807 3.09237 31.3543 2.82837 31.6999 2.68918C32.0502 2.55478 32.4294 2.56438 32.775 2.71318C33.3942 2.99157 33.7254 3.67316 33.5574 4.33075L31.2151 13.4794C31.2151 13.4813 31.2135 13.4909 31.2108 13.5076C31.1929 13.6192 31.1239 14.0479 31.1239 14.6074C31.1239 14.9866 31.1527 15.4234 31.2535 15.8649C31.3207 16.1529 31.5127 16.3929 31.7862 16.5177C32.0694 16.6521 32.3958 16.6473 32.6742 16.5033C33.2838 16.1913 33.8934 15.8266 34.4886 15.4234C35.823 14.5114 36.7254 14.0506 37.5126 13.873ZM20.4044 15.2332C20.4451 15.7388 20.5116 16.448 20.6168 17.2617C20.7896 18.6393 21.068 20.3241 21.5048 21.8552C21.9464 23.4152 23.3912 24.5 25.0232 24.5H28.3379C28.3222 24.4815 28.3063 24.4628 28.2901 24.4438C28.2636 24.4128 28.2362 24.3809 28.2081 24.3483C28.0132 24.1217 27.787 23.8589 27.6153 23.5801L27.6155 23.5805L28.0237 23.328L27.615 23.5797L27.6153 23.5801C27.2399 22.9729 27.1324 22.3005 27.1285 21.657C27.1252 21.1148 27.1967 20.5558 27.2615 20.0495L27.2615 20.0493C27.2726 19.9626 27.2835 19.8774 27.2938 19.7941C27.3641 19.2268 27.3863 18.6419 27.2928 18.1252C27.2 17.6121 27.0006 17.2025 26.6569 16.9258L26.9575 16.5516L26.6566 16.9256C26.3903 16.7117 26.0539 16.5908 25.6401 16.5056C25.4335 16.4631 25.2185 16.4315 24.9891 16.3987L24.9421 16.392L24.9421 16.392C24.731 16.3619 24.5072 16.33 24.2878 16.288L24.2873 16.2879C23.674 16.1699 23.0861 15.9668 22.5353 15.7766L22.4172 15.7358C21.8201 15.53 21.2618 15.3454 20.6862 15.2583C20.5966 15.2448 20.5009 15.2369 20.4044 15.2332Z" fill="white"/>
<defs>
<clipPath id="clip0_6978_26512">
<rect width="18" height="18" fill="white" transform="translate(0.65625 6.5)"/>
</clipPath>
</defs>
</svg>
