<svg xmlns="http://www.w3.org/2000/svg" width="14" height="18" viewBox="0 0 14 18" fill="none">
<path d="M13.5 5.3772L12.8785 4.77453L11.0561 6.52627C10.9817 5.03168 10.4551 3.73713 9.4764 2.64262C8.49709 1.54754 7.26314 1 5.77455 1C4.28595 1 3.03471 1.51884 2.02083 2.55653C1.00694 3.59478 0.5 4.84102 0.5 6.29526L0.5 8.04955L1.37909 8.04955L1.37909 6.31231C1.37909 5.08936 1.80193 4.04031 2.64762 3.16516C3.49331 2.29 4.53561 1.85242 5.77455 1.85242C7.00996 1.85242 8.03322 2.3187 8.84433 3.25125C9.65603 4.18324 10.0967 5.27945 10.1665 6.5399L8.34589 4.77453L7.7191 5.3772L10.6095 8.18082L13.5 5.3772ZM12.8073 10.6068L7.70151 10.6068L7.70151 17L12.8073 17L12.8073 10.6068ZM5.60576 10.6068L0.5 10.6068L0.499999 17L5.60576 17L5.60576 10.6068ZM4.72667 11.4592L4.72667 16.1476L1.37909 16.1476L1.37909 11.4592L4.72667 11.4592Z" fill="#FE632F" stroke="#FE632F" stroke-width="0.5"/>
</svg>