<svg width="16" height="16" viewBox="0 0 16 16" fill="none" xmlns="http://www.w3.org/2000/svg">
<path id="Vector" d="M8 0C3.58737 0 0 3.58737 0 8C0 12.4126 3.58737 16 8 16C12.4126 16 16 12.4126 16 8C16 3.58737 12.4126 0 8 0ZM10.6947 10.6947C10.5768 10.8126 10.4168 10.8716 10.2568 10.8716C10.0968 10.8716 9.94526 10.8126 9.81895 10.6947L7.5621 8.43789C7.45263 8.32 7.38526 8.16 7.38526 8V2.69474C7.38526 2.35789 7.66316 2.08 8 2.08C8.33684 2.08 8.61474 2.35789 8.61474 2.69474V7.74737L10.6863 9.81895C10.9305 10.0632 10.9305 10.4505 10.6947 10.6947Z" fill="white"/>
</svg>
