<svg xmlns="http://www.w3.org/2000/svg" width="72" height="72" viewBox="0 0 72 72" fill="none">
<path d="M50.9062 63.8438H19.9688V12.0938H50.9062" fill="white"/>
<path d="M50.9078 65.5312V12.0938H19.9703V65.5312H14.0078V6.46875H56.3078V65.5312H50.9078Z" fill="#C7D7E2"/>
<path d="M50.9078 67.2188C50.4578 67.2188 50.0078 67.05 49.7266 66.7125C49.3891 66.375 49.2203 65.9813 49.2203 65.5312V13.7812H21.6578V65.5312C21.6578 65.9813 21.4891 66.4312 21.1516 66.7125C20.8141 67.05 20.4203 67.2188 19.9703 67.2188H14.0078C13.0516 67.2188 12.3203 66.4875 12.3203 65.5312V6.46875C12.3203 5.5125 13.0516 4.78125 14.0078 4.78125H56.3078C57.2641 4.78125 57.9953 5.5125 57.9953 6.46875V65.5312C57.9953 66.4875 57.2641 67.2188 56.3078 67.2188H50.9078ZM15.6953 63.8438H18.2828V12.0938C18.2828 11.1375 19.0141 10.4062 19.9703 10.4062H50.9078C51.8641 10.4062 52.5953 11.1375 52.5953 12.0938V63.8438H54.6203V8.15625H15.6953V63.8438Z" fill="#454B54"/>
<path d="M56.5328 67.2188C55.5766 67.2188 54.8453 66.4875 54.8453 65.5312C54.8453 64.575 55.5766 63.8438 56.5328 63.8438H61.9328C62.8891 63.8438 63.6203 64.575 63.6203 65.5312C63.6203 66.4875 62.8891 67.2188 61.9328 67.2188H56.5328ZM14.3453 67.2188H8.38281C7.42656 67.2188 6.69531 66.4875 6.69531 65.5312C6.69531 64.575 7.42656 63.8438 8.38281 63.8438H14.3453C15.3016 63.8438 16.0328 64.575 16.0328 65.5312C16.0328 66.4875 15.3016 67.2188 14.3453 67.2188ZM46.4078 40.7812H43.2578C42.3016 40.7812 41.5703 40.05 41.5703 39.0938C41.5703 38.1375 42.3016 37.4062 43.2578 37.4062H46.4078C47.3641 37.4062 48.0953 38.1375 48.0953 39.0938C48.0953 40.05 47.3641 40.7812 46.4078 40.7812Z" fill="#454B54"/>
</svg>