<svg width="41" height="41" viewBox="0 0 41 41" fill="none" xmlns="http://www.w3.org/2000/svg">
<path d="M16.6364 29.5714H12.2727C11.9834 29.5714 11.7059 29.6843 11.5013 29.8852C11.2968 30.0862 11.1818 30.3587 11.1818 30.6429V32.7857C11.1818 33.6382 11.5266 34.4558 12.1404 35.0586C12.7541 35.6614 13.5866 36 14.4545 36C15.3225 36 16.155 35.6614 16.7687 35.0586C17.3825 34.4558 17.7273 33.6382 17.7273 32.7857V30.6429C17.7273 30.3587 17.6123 30.0862 17.4078 29.8852C17.2032 29.6843 16.9257 29.5714 16.6364 29.5714ZM29.7273 29.5714H25.3636C25.0743 29.5714 24.7968 29.6843 24.5922 29.8852C24.3877 30.0862 24.2727 30.3587 24.2727 30.6429V32.7857C24.2727 33.6382 24.6175 34.4558 25.2313 35.0586C25.845 35.6614 26.6775 36 27.5455 36C28.4134 36 29.2459 35.6614 29.8596 35.0586C30.4734 34.4558 30.8182 33.6382 30.8182 32.7857V30.6429C30.8182 30.3587 30.7033 30.0862 30.4987 29.8852C30.2941 29.6843 30.0166 29.5714 29.7273 29.5714ZM33 10.425V11.3571H9V10.425C9 9.25142 9.47468 8.1259 10.3196 7.29605C11.1646 6.4662 12.3105 6 13.5055 6H28.4945C29.6895 6 30.8355 6.4662 31.6804 7.29605C32.5253 8.1259 33 9.25142 33 10.425Z" fill="#FFB21D"/>
<path d="M33 23.1387V30.6387C33 30.9228 32.8851 31.1954 32.6805 31.3963C32.4759 31.5972 32.1984 31.7101 31.9091 31.7101H10.0909C9.80158 31.7101 9.52411 31.5972 9.31952 31.3963C9.11493 31.1954 9 30.9228 9 30.6387V23.1387H33Z" fill="#FFB21D"/>
<path d="M33 11.3594H9V23.1451H33V11.3594Z" fill="white"/>
<path d="M28.4945 6H13.5055C12.3105 6 11.1646 6.4662 10.3196 7.29605C9.47468 8.1259 9 9.25142 9 10.425V30.6429C9 30.927 9.11493 31.1995 9.31952 31.4005C9.52411 31.6014 9.80158 31.7143 10.0909 31.7143H11.1818V32.7857C11.1818 33.6382 11.5266 34.4558 12.1404 35.0586C12.7541 35.6614 13.5866 36 14.4545 36C15.3225 36 16.155 35.6614 16.7687 35.0586C17.3825 34.4558 17.7273 33.6382 17.7273 32.7857V31.7143H24.2727V32.7857C24.2727 33.6382 24.6175 34.4558 25.2313 35.0586C25.845 35.6614 26.6775 36 27.5455 36C28.4134 36 29.2459 35.6614 29.8596 35.0586C30.4734 34.4558 30.8182 33.6382 30.8182 32.7857V31.7143H31.9091C32.1984 31.7143 32.4759 31.6014 32.6805 31.4005C32.8851 31.1995 33 30.927 33 30.6429V10.425C33 9.25142 32.5253 8.1259 31.6804 7.29605C30.8355 6.4662 29.6895 6 28.4945 6ZM11.1818 13.5H30.8182V21H11.1818V13.5ZM13.5055 8.14286H28.4945C29.1099 8.14567 29.6993 8.38702 30.1344 8.81439C30.5696 9.24177 30.8153 9.82061 30.8182 10.425V11.3571H11.1818V10.425C11.1847 9.82061 11.4304 9.24177 11.8656 8.81439C12.3007 8.38702 12.8901 8.14567 13.5055 8.14286ZM15.5455 32.7857C15.5455 33.0699 15.4305 33.3424 15.2259 33.5433C15.0214 33.7443 14.7439 33.8571 14.4545 33.8571C14.1652 33.8571 13.8877 33.7443 13.6832 33.5433C13.4786 33.3424 13.3636 33.0699 13.3636 32.7857V31.7143H15.5455V32.7857ZM28.6364 32.7857C28.6364 33.0699 28.5214 33.3424 28.3168 33.5433C28.1123 33.7443 27.8348 33.8571 27.5455 33.8571C27.2561 33.8571 26.9787 33.7443 26.7741 33.5433C26.5695 33.3424 26.4545 33.0699 26.4545 32.7857V31.7143H28.6364V32.7857ZM30.8182 29.5714H11.1818V23.1429H30.8182V29.5714ZM13.3636 26.3571C13.3636 26.1452 13.4276 25.9381 13.5475 25.7619C13.6674 25.5857 13.8377 25.4484 14.0371 25.3673C14.2364 25.2862 14.4558 25.265 14.6674 25.3063C14.879 25.3476 15.0734 25.4497 15.2259 25.5995C15.3785 25.7494 15.4824 25.9403 15.5245 26.1481C15.5666 26.356 15.545 26.5714 15.4624 26.7672C15.3798 26.9629 15.24 27.1303 15.0606 27.248C14.8812 27.3657 14.6703 27.4286 14.4545 27.4286C14.1652 27.4286 13.8877 27.3157 13.6832 27.1148C13.4786 26.9138 13.3636 26.6413 13.3636 26.3571ZM26.4545 26.3571C26.4545 26.1452 26.5185 25.9381 26.6384 25.7619C26.7583 25.5857 26.9286 25.4484 27.128 25.3673C27.3273 25.2862 27.5467 25.265 27.7583 25.3063C27.9699 25.3476 28.1643 25.4497 28.3168 25.5995C28.4694 25.7494 28.5733 25.9403 28.6154 26.1481C28.6575 26.356 28.6359 26.5714 28.5533 26.7672C28.4708 26.9629 28.3309 27.1303 28.1515 27.248C27.9721 27.3657 27.7612 27.4286 27.5455 27.4286C27.2561 27.4286 26.9787 27.3157 26.7741 27.1148C26.5695 26.9138 26.4545 26.6413 26.4545 26.3571ZM16.6364 26.3571C16.6364 26.073 16.7513 25.8005 16.9559 25.5995C17.1605 25.3986 17.4379 25.2857 17.7273 25.2857H24.2727C24.5621 25.2857 24.8395 25.3986 25.0441 25.5995C25.2487 25.8005 25.3636 26.073 25.3636 26.3571C25.3636 26.6413 25.2487 26.9138 25.0441 27.1148C24.8395 27.3157 24.5621 27.4286 24.2727 27.4286H17.7273C17.4379 27.4286 17.1605 27.3157 16.9559 27.1148C16.7513 26.9138 16.6364 26.6413 16.6364 26.3571Z" fill="#4F1205"/>
</svg>
