<svg width="14" height="14" viewBox="0 0 18 18" fill="none" xmlns="http://www.w3.org/2000/svg">
<path d="M0.128865 2.78276C-0.162135 1.98626 0.056865 1.10426 0.687615 0.536514C1.31687 -0.028986 2.21312 -0.156486 2.97362 0.213264L16.5411 6.54626C17.2686 6.88676 17.7891 7.50851 17.9999 8.25101H3.03586L0.171615 2.87801C0.155865 2.84726 0.141615 2.81501 0.128865 2.78276ZM3.04636 9.75176L0.231615 15.133C0.215865 15.163 0.202365 15.193 0.191115 15.2245C-0.099135 16.0218 0.122115 16.9023 0.752865 17.4693C1.14362 17.8195 1.63712 18.0003 2.13362 18.0003C2.44037 18.0003 2.74786 17.9313 3.03436 17.791L16.5426 11.4625C17.2724 11.1205 17.7921 10.4965 18.0014 9.75251H3.04636V9.75176Z" fill="white"/>
</svg>
