
<svg width="26" height="26" viewBox="0 0 26 26" fill="none" xmlns="http://www.w3.org/2000/svg">
<path d="M25.9742 26H0.0273438C0.0273438 24.5729 1.19495 23.4053 2.62203 23.4053H23.3795C24.8066 23.4053 25.9742 24.5729 25.9742 26ZM22.4714 10.4319C22.2119 10.4319 21.9524 10.4319 21.693 10.5616C21.5632 10.1724 21.3329 9.38889 21.3329 9.38889C21.3329 9.38889 21.1716 8.85672 21.0443 7.96693C21.0443 7.57773 21.0443 7.05879 20.7848 6.66959C20.5254 5.89118 19.8767 5.50198 19.228 5.11278C17.8009 4.33437 16.3739 3.81544 15.5955 2.51809C15.336 2.12889 14.6873 -1.76314 11.3142 0.961281C10.4061 1.86942 9.10874 2.25862 7.94114 3.03703C7.033 3.55597 5.99512 3.94517 5.34645 4.59384C4.17884 5.76145 4.04911 6.41012 3.91937 8.09667C3.91937 8.87507 3.91937 9.65348 3.91937 10.4319C3.78964 10.4319 3.6599 10.4319 3.53017 10.4319C2.36256 10.4319 1.32469 11.5995 1.32469 13.0266C1.32469 14.4536 2.36256 15.6213 3.53017 15.6213C3.78964 15.6213 4.04911 15.6213 4.30858 15.4915C5.34645 19.3835 8.84927 22.108 13.0008 22.108C17.1523 22.108 20.6551 19.2538 21.693 15.4915C21.9524 15.6213 22.2119 15.6213 22.4714 15.6213C23.639 15.6213 24.6769 14.4536 24.6769 13.0266C24.6769 11.5995 23.639 10.4319 22.4714 10.4319ZM7.8114 11.7292C7.8114 10.9508 8.33034 10.4319 9.10874 10.4319C9.88715 10.4319 10.4061 10.9508 10.4061 11.7292C10.4061 12.5076 9.88715 13.0266 9.10874 13.0266C8.33034 13.0266 7.8114 12.5076 7.8114 11.7292ZM16.5036 17.8267C15.2063 19.2538 13.9089 19.5133 13.1305 19.5133C11.0548 19.5133 9.62768 17.9565 9.49795 17.8267C8.97901 17.3078 8.97901 16.5294 9.49795 16.0105C10.0169 15.4915 10.7953 15.4915 11.3142 16.0105C11.5737 16.2699 12.3521 16.7889 13.1305 16.9186C13.6494 16.9186 14.1684 16.6591 14.6873 16.1402C15.2063 15.6213 15.9847 15.6213 16.5036 16.0105C17.0225 16.3997 17.0225 17.3078 16.5036 17.8267ZM16.8928 13.0266C16.1144 13.0266 15.5955 12.5076 15.5955 11.7292C15.5955 10.9508 16.1144 10.4319 16.8928 10.4319C17.6712 10.4319 18.1901 10.9508 18.1901 11.7292C18.1901 12.5076 17.6712 13.0266 16.8928 13.0266Z" fill="#00858E"/>
</svg>