<svg width="16" height="16" viewBox="0 0 16 16" fill="none" xmlns="http://www.w3.org/2000/svg">
<path id="Vector" d="M15.9829 16H0.015625C0.015625 15.1218 0.734153 14.4033 1.61235 14.4033H14.3862C15.2644 14.4033 15.9829 15.1218 15.9829 16ZM13.8273 6.41962C13.6677 6.41962 13.508 6.41962 13.3483 6.49946C13.2685 6.25995 13.1267 5.77778 13.1267 5.77778C13.1267 5.77778 13.0275 5.45029 12.9491 4.90273C12.9491 4.66322 12.9491 4.34387 12.7895 4.10436C12.6298 3.62534 12.2306 3.38583 11.8314 3.14633C10.9532 2.66731 10.075 2.34796 9.596 1.5496C9.43633 1.31009 9.03715 -1.08501 6.9614 0.591558C6.40254 1.15041 5.60418 1.38992 4.88565 1.86894C4.3268 2.18829 3.6881 2.4278 3.28892 2.82698C2.57039 3.54551 2.49056 3.94469 2.41072 4.98256C2.41072 5.46158 2.41072 5.9406 2.41072 6.41962C2.33088 6.41962 2.25105 6.41962 2.17121 6.41962C1.45268 6.41962 0.81399 7.13815 0.81399 8.01635C0.81399 8.89455 1.45268 9.61308 2.17121 9.61308C2.33088 9.61308 2.49056 9.61308 2.65023 9.53324C3.28892 11.9283 5.44451 13.6049 7.99927 13.6049C10.554 13.6049 12.7096 11.8485 13.3483 9.53324C13.508 9.61308 13.6677 9.61308 13.8273 9.61308C14.5459 9.61308 15.1846 8.89455 15.1846 8.01635C15.1846 7.13815 14.5459 6.41962 13.8273 6.41962ZM4.80581 7.21799C4.80581 6.73897 5.12516 6.41962 5.60418 6.41962C6.0832 6.41962 6.40254 6.73897 6.40254 7.21799C6.40254 7.697 6.0832 8.01635 5.60418 8.01635C5.12516 8.01635 4.80581 7.697 4.80581 7.21799ZM10.1549 10.9703C9.35649 11.8485 8.55813 12.0082 8.07911 12.0082C6.80173 12.0082 5.92352 11.0501 5.84369 10.9703C5.52434 10.651 5.52434 10.1719 5.84369 9.85259C6.16303 9.53324 6.64205 9.53324 6.9614 9.85259C7.12107 10.0123 7.60009 10.3316 8.07911 10.4114C8.39846 10.4114 8.7178 10.2518 9.03715 9.93243C9.35649 9.61308 9.83551 9.61308 10.1549 9.85259C10.4742 10.0921 10.4742 10.651 10.1549 10.9703ZM10.3944 8.01635C9.91535 8.01635 9.596 7.697 9.596 7.21799C9.596 6.73897 9.91535 6.41962 10.3944 6.41962C10.8734 6.41962 11.1927 6.73897 11.1927 7.21799C11.1927 7.697 10.8734 8.01635 10.3944 8.01635Z" fill="white"/>
</svg>
