
<svg width="20" height="20" viewBox="0 0 20 20" fill="none" xmlns="http://www.w3.org/2000/svg">
<path d="M10 10C10.5284 10 11.045 9.8433 11.4844 9.54971C11.9238 9.25612 12.2663 8.83883 12.4685 8.35061C12.6707 7.86239 12.7236 7.32516 12.6205 6.80687C12.5174 6.28857 12.263 5.81249 11.8893 5.43882C11.5156 5.06516 11.0396 4.81068 10.5213 4.70759C10.003 4.60449 9.46574 4.65741 8.97752 4.85963C8.4893 5.06186 8.07201 5.40432 7.77842 5.84371C7.48483 6.2831 7.32812 6.79968 7.32812 7.32812C7.32969 8.03627 7.6117 8.71496 8.11243 9.21569C8.61317 9.71643 9.29186 9.99843 10 10ZM18.3125 3.46875V12.9688C18.3125 13.4412 18.1248 13.8942 17.7908 14.2283C17.4567 14.5623 17.0037 14.75 16.5312 14.75H15.3438H14.1562C13.9988 14.75 13.8478 14.6874 13.7364 14.5761C13.6251 14.4647 13.5625 14.3137 13.5625 14.1562C13.5625 13.9988 13.6251 13.8478 13.7364 13.7364C13.8478 13.6251 13.9988 13.5625 14.1562 13.5625H16.5312C16.6887 13.5625 16.8397 13.4999 16.9511 13.3886C17.0624 13.2772 17.125 13.1262 17.125 12.9688V3.46875C17.125 3.31128 17.0624 3.16026 16.9511 3.04891C16.8397 2.93756 16.6887 2.875 16.5312 2.875H3.46875C3.31128 2.875 3.16026 2.93756 3.04891 3.04891C2.93756 3.16026 2.875 3.31128 2.875 3.46875V12.9688C2.875 13.1262 2.93756 13.2772 3.04891 13.3886C3.16026 13.4999 3.31128 13.5625 3.46875 13.5625H5.84375C6.00122 13.5625 6.15225 13.6251 6.26359 13.7364C6.37494 13.8478 6.4375 13.9988 6.4375 14.1562C6.4375 14.3137 6.37494 14.4647 6.26359 14.5761C6.15225 14.6874 6.00122 14.75 5.84375 14.75H3.46875C2.99633 14.75 2.54327 14.5623 2.20922 14.2283C1.87517 13.8942 1.6875 13.4412 1.6875 12.9688V3.46875C1.6875 2.99633 1.87517 2.54327 2.20922 2.20922C2.54327 1.87517 2.99633 1.6875 3.46875 1.6875H16.5312C17.0037 1.6875 17.4567 1.87517 17.7908 2.20922C18.1248 2.54327 18.3125 2.99633 18.3125 3.46875ZM10 10.5938C9.21264 10.5938 8.45753 10.9065 7.90078 11.4633C7.34403 12.02 7.03125 12.7751 7.03125 13.5625V17.125C7.03125 17.4399 7.15636 17.742 7.37906 17.9647C7.60176 18.1874 7.90381 18.3125 8.21875 18.3125H11.7812C12.0962 18.3125 12.3982 18.1874 12.6209 17.9647C12.8436 17.742 12.9688 17.4399 12.9688 17.125V13.5625C12.9688 12.7751 12.656 12.02 12.0992 11.4633C11.5425 10.9065 10.7874 10.5938 10 10.5938Z" fill="white"/>
</svg>
