<svg xmlns="http://www.w3.org/2000/svg" width="72" height="72" viewBox="0 0 72 72" fill="none">
<path d="M57.1516 19.2375C56.7016 19.2375 56.3078 19.0688 55.9703 18.7313C52.3141 15.075 47.7578 12.5438 42.8078 11.3063C41.9078 11.0813 41.3453 10.1813 41.5703 9.28125C41.7953 8.38125 42.6953 7.81875 43.5953 8.04375C49.1641 9.39375 54.2828 12.3188 58.3328 16.3688C59.0078 17.0438 59.0078 18.1125 58.3328 18.7313C57.9953 19.0688 57.6016 19.2375 57.1516 19.2375ZM14.8516 19.2375C14.4016 19.2375 14.0078 19.0688 13.6703 18.7313C12.9953 18.0563 12.9953 16.9875 13.6703 16.3688C17.7203 12.3188 22.8391 9.45 28.4078 8.04375C29.3078 7.81875 30.2078 8.38125 30.4328 9.28125C30.6578 10.1813 30.0953 11.0813 29.1953 11.3063C24.2453 12.5438 19.6891 15.075 16.0328 18.7313C15.7516 19.0688 15.3016 19.2375 14.8516 19.2375Z" fill="#444B54"/>
<path d="M35.9992 60.1879C47.8664 60.1879 57.4867 50.5676 57.4867 38.7004C57.4867 26.8332 47.8664 17.2129 35.9992 17.2129C24.132 17.2129 14.5117 26.8332 14.5117 38.7004C14.5117 50.5676 24.132 60.1879 35.9992 60.1879Z" fill="white"/>
<path d="M30.0966 55.6373C29.33 57.7978 30.4911 60.2043 32.7612 60.5235C35.0416 60.8441 37.3677 60.8254 39.6578 60.4607C43.3301 59.8758 46.7949 58.4195 49.7419 56.2221C52.6889 54.0248 55.0261 51.1551 56.5439 47.8701C57.4692 45.8675 58.0724 43.7487 58.3403 41.5866C58.6256 39.2839 56.5689 37.5329 54.2544 37.698C51.9236 37.8642 50.2386 39.9366 49.6702 42.2032C49.4695 43.0037 49.1932 43.7878 48.8432 44.5452C47.8943 46.5989 46.4333 48.3929 44.5909 49.7666C42.7486 51.1403 40.5825 52.0507 38.2867 52.4164C37.3175 52.5707 36.3381 52.6259 35.3641 52.5833C33.1403 52.4861 30.8409 53.5395 30.0966 55.6373Z" fill="#F9AD8D"/>
<path d="M53.5498 53.7758C57.1498 49.557 59.1748 44.2695 59.1748 38.7008C59.1748 32.5133 56.7561 26.7195 52.3686 22.332C43.3686 13.332 28.6311 13.332 19.6311 22.332C11.0248 30.9383 10.6311 44.7758 18.5061 53.832L14.0061 58.4445C13.3311 59.1195 13.3873 60.1883 14.0623 60.807C14.3998 61.1445 14.7936 61.3133 15.2436 61.3133C15.6936 61.3133 16.1436 61.1445 16.4248 60.807L20.9248 56.1945C25.1436 59.8508 30.4311 61.8195 36.0561 61.8195C41.6811 61.8195 47.0248 59.7945 51.2436 56.1383L56.3061 60.807C56.6436 61.0883 57.0373 61.257 57.4311 61.257C57.8811 61.257 58.3311 61.0883 58.6686 60.6945C59.2873 60.0195 59.2873 58.9508 58.5561 58.332L53.5498 53.7758ZM22.0498 52.6508C14.3436 44.9445 14.3436 32.4008 22.0498 24.6945C25.8748 20.8133 30.9373 18.9008 35.9998 18.9008C41.0623 18.9008 46.1248 20.8133 50.0061 24.6945C53.7186 28.407 55.7998 33.4133 55.7998 38.7008C55.7998 43.9883 53.7186 48.9383 50.0061 52.707C46.2936 56.4195 41.2873 58.5008 35.9998 58.5008C30.7123 58.4445 25.7623 56.4195 22.0498 52.6508Z" fill="#444B54"/>
<path d="M44.2125 40.3871H36C35.0437 40.3871 34.3125 39.6559 34.3125 38.6996V28.6309C34.3125 27.6746 35.0437 26.9434 36 26.9434C36.9562 26.9434 37.6875 27.6746 37.6875 28.6309V37.0121H44.2125C45.1687 37.0121 45.9 37.7434 45.9 38.6996C45.9 39.6559 45.1125 40.3871 44.2125 40.3871Z" fill="#444B54"/>
</svg>