<svg width="16" height="16" viewBox="0 0 16 16" fill="none" xmlns="http://www.w3.org/2000/svg">
<path id="Vector" d="M11.5556 7.10045V4.43778H8.88889V2.66267H11.5556V0H13.3333V2.66267H16V4.43778H13.3333V7.10045H11.5556ZM15.0667 15.976C13.2148 15.976 11.3816 15.5766 9.56711 14.7778C7.75259 13.979 6.1043 12.84 4.62222 11.3607C3.14074 9.88145 2 8.23948 1.2 6.43478C0.4 4.63008 0 2.7958 0 0.931934V0H5.24444L6.06667 4.45997L3.53333 7.01169C3.85926 7.5886 4.22222 8.13593 4.62222 8.65367C5.02222 9.17141 11.0963 15.5322 11.5556 15.976C11.9852 16.405 6.81126 10.9356 7.32267 11.3279C7.83407 11.7202 8.38578 12.0861 8.97778 12.4258L11.5556 9.85187L16 10.7616V15.976H15.0667Z" fill="#919191"/>
</svg>
