<svg width="24" height="24" viewBox="0 0 24 24" fill="none" xmlns="http://www.w3.org/2000/svg">
<path d="M7 4C7 2.89543 7.89543 2 9 2H15C16.1046 2 17 2.89543 17 4V5H22V7H2V5H7V4ZM9 5H15V4H9V5Z" fill="#8E8E8E"/>
<path d="M3.10557 8.44721L4.89443 7.55279L5.78885 9.34164C5.92771 9.61935 6 9.92558 6 10.2361V20H18V10.2361C18 9.92558 18.0723 9.61935 18.2111 9.34164L19.1056 7.55279L20.8944 8.44721L20 10.2361V20C20 21.1046 19.1046 22 18 22H6C4.89543 22 4 21.1046 4 20V10.2361L3.10557 8.44721Z" fill="#8E8E8E"/>
<path d="M13 10V18H15V10H13Z" fill="#8E8E8E"/>
<path d="M9 18V10H11V18H9Z" fill="#8E8E8E"/>
</svg>
