<svg xmlns="http://www.w3.org/2000/svg" width="78" height="72" viewBox="0 0 78 72" fill="none">
<path d="M10.457 7.45898H67.5845C68.778 7.45898 69.9226 7.93309 70.7665 8.777C71.6104 9.62092 72.0845 10.7655 72.0845 11.959V31.5002C72.0831 35.8432 71.226 40.1433 69.5623 44.1549C67.8986 48.1666 65.4609 51.8112 62.3885 54.8805C59.316 57.9499 55.6689 60.3839 51.6555 62.0434C47.6422 63.703 43.3412 64.5557 38.9983 64.5527C30.2351 64.5468 21.8327 61.0622 15.6372 54.8646C9.44173 48.667 5.96001 40.2634 5.95703 31.5002V11.959C5.95703 10.7655 6.43114 9.62092 7.27505 8.777C8.11896 7.93309 9.26356 7.45898 10.457 7.45898Z" fill="#FEFFFF" stroke="#3A3435" stroke-width="4" stroke-linecap="round" stroke-linejoin="round"/>
<path d="M7.56641 37.3613H6.44141C7.57629 43.6236 10.4938 49.4255 14.8439 54.0709C19.194 58.7164 24.7921 62.0082 30.9664 63.5513C31.0647 62.6734 31.1173 61.791 31.1239 60.9076C31.1239 57.8145 30.5145 54.7517 29.3305 51.8942C28.1465 49.0367 26.4111 46.4405 24.2234 44.2539C22.0357 42.0673 19.4387 40.3331 16.5806 39.1505C13.7226 37.9678 10.6595 37.3599 7.56641 37.3613ZM71.5339 37.3951C71.1627 37.3951 70.8027 37.3951 70.4089 37.3951C64.1718 37.3981 58.1908 39.8755 53.7784 44.2837C49.366 48.6918 46.8828 54.6705 46.8739 60.9076C46.8752 61.7949 46.9278 62.6814 47.0314 63.5626H47.1889C53.3263 61.9896 58.8831 58.6876 63.1987 54.0489C67.5144 49.4102 70.4074 43.6299 71.5339 37.3951Z" fill="#8ACBFF" stroke="#3A3435" stroke-width="4" stroke-linecap="round" stroke-linejoin="round"/>
<path d="M63.2992 15.0645H72.873C73.4697 15.0645 74.042 15.3015 74.464 15.7235C74.8859 16.1454 75.123 16.7177 75.123 17.3145V22.9395C75.123 23.5362 74.8859 24.1085 74.464 24.5304C74.042 24.9524 73.4697 25.1895 72.873 25.1895H63.2992C62.0461 25.1895 60.8442 24.6916 59.9581 23.8055C59.072 22.9194 58.5742 21.7176 58.5742 20.4645V19.8007C58.5742 18.5476 59.072 17.3457 59.9581 16.4596C60.8442 15.5735 62.0461 15.0757 63.2992 15.0757V15.0645Z" fill="#A7E1FA" stroke="#3A3435" stroke-width="4" stroke-linecap="round" stroke-linejoin="round"/>
<path d="M14.7008 25.1895H5.12703C4.53029 25.1895 3.958 24.9524 3.53604 24.5304C3.11408 24.1085 2.87703 23.5362 2.87703 22.9395V17.3145C2.87703 16.7177 3.11408 16.1454 3.53604 15.7235C3.958 15.3015 4.53029 15.0645 5.12703 15.0645L14.7008 15.0645C15.9539 15.0645 17.1558 15.5623 18.0419 16.4484C18.928 17.3345 19.4258 18.5363 19.4258 19.7895V20.4532C19.4258 21.7064 18.928 22.9082 18.0419 23.7943C17.1558 24.6804 15.9539 25.1782 14.7008 25.1782V25.1895Z" fill="#A7E1FA" stroke="#3A3435" stroke-width="4" stroke-linecap="round" stroke-linejoin="round"/>
<path d="M47.5616 23.2995C46.5032 22.4776 45.179 22.0749 43.8423 22.1683C42.5056 22.2617 41.2503 22.8447 40.3166 23.8057L39.0003 25.077L37.7291 23.8057C36.7985 22.8433 35.5448 22.259 34.2093 22.1656C32.8738 22.0721 31.5509 22.476 30.4953 23.2995C29.9249 23.7658 29.4587 24.3466 29.1268 25.0044C28.795 25.6622 28.6049 26.3823 28.5688 27.1182C28.5328 27.8541 28.6516 28.5894 28.9175 29.2765C29.1835 29.9635 29.5907 30.5872 30.1128 31.107L31.5641 32.6257L37.4366 38.487C37.6455 38.6962 37.8937 38.8621 38.1668 38.9754C38.44 39.0886 38.7328 39.1469 39.0284 39.1469C39.3241 39.1469 39.6169 39.0886 39.8901 38.9754C40.1632 38.8621 40.4114 38.6962 40.6203 38.487L46.4928 32.6257L48.0003 31.107C48.5176 30.5825 48.9193 29.9556 49.1796 29.2665C49.4399 28.5774 49.553 27.8414 49.5117 27.106C49.4703 26.3705 49.2755 25.6519 48.9396 24.9963C48.6037 24.3407 48.1343 23.7627 47.5616 23.2995Z" fill="#8ACBFF" stroke="#3A3435" stroke-width="4" stroke-linecap="round" stroke-linejoin="round"/>
</svg>