<svg xmlns="http://www.w3.org/2000/svg" width="16" height="16" viewBox="0 0 16 16" fill="#00858E">
<path d="M8 6.21195e-08C7.10987 -0.000149448 6.2406 0.269585 5.50692 0.773611C4.77323 1.27764 4.2096 1.99227 3.8904 2.8232C3.55856 2.72751 3.22214 2.64848 2.8824 2.5864C2.18369 2.45991 1.47486 2.39778 0.7648 2.4008L0.6272 2.404L0.5888 2.4056L0.5728 2.4064C0.4252 2.41446 0.285768 2.47672 0.181244 2.58124C0.076719 2.68577 0.0144581 2.8252 0.00639992 2.9728L0.00400009 3.028C-0.00147004 3.23705 -0.0001361 3.44623 0.00799999 3.6552C0.024 4.0656 0.0688 4.6368 0.1864 5.2824C0.2936 5.8704 0.4648 6.5344 0.7384 7.2H0.5968C0.438519 7.2 0.28672 7.26288 0.174799 7.3748C0.0628769 7.48672 0 7.63852 0 7.7968V8C0 8.836 0.128 9.6424 0.3664 10.4H15.6336C15.8772 9.62331 16.0007 8.81398 16 8V7.7968C16 7.63852 15.9371 7.48672 15.8252 7.3748C15.7133 7.26288 15.5615 7.2 15.4032 7.2H15.1976C15.2202 6.31709 14.9426 5.45264 14.4101 4.74798C13.8777 4.04333 13.1219 3.54018 12.2664 3.3208C12.0259 2.37144 11.4757 1.52939 10.7028 0.927924C9.92994 0.326455 8.97854 -7.92451e-05 7.9992 6.21195e-08M7.9992 1.2C8.63911 1.2001 9.2643 1.392 9.79407 1.75093C10.3238 2.10986 10.7339 2.61934 10.9712 3.2136C10.2833 3.27142 9.62297 3.5107 9.05771 3.90704C8.49244 4.30337 8.04244 4.84256 7.7536 5.4696C7.53784 5.14998 7.2922 4.85157 7.02 4.5784C6.4208 3.9792 5.724 3.5464 5.0184 3.232C5.25344 2.63277 5.66369 2.11833 6.19559 1.75584C6.72749 1.39334 7.35632 1.19963 8 1.2M13.9992 7.1C13.9992 7.1336 13.9984 7.1672 13.9968 7.2H8.6136L8.5992 7.16V7.1C8.5992 6.38392 8.88366 5.69716 9.39001 5.19081C9.89636 4.68446 10.5831 4.4 11.2992 4.4C12.0153 4.4 12.702 4.68446 13.2084 5.19081C13.7147 5.69716 13.9992 6.38392 13.9992 7.1ZM6.172 5.4272C6.6864 5.9408 7.0592 6.5592 7.328 7.2H5.648L4.224 5.776C4.16907 5.71705 4.10283 5.66977 4.02923 5.63698C3.95563 5.60418 3.87618 5.58655 3.79562 5.58513C3.71506 5.5837 3.63503 5.59853 3.56032 5.6287C3.48561 5.65888 3.41774 5.70379 3.36077 5.76077C3.30379 5.81774 3.25888 5.88561 3.2287 5.96032C3.19852 6.03503 3.18371 6.11506 3.18513 6.19562C3.18655 6.27618 3.20418 6.35563 3.23698 6.42923C3.26977 6.50283 3.31705 6.56907 3.376 6.624L3.952 7.2H2.056C1.704 6.4992 1.4928 5.7496 1.368 5.0664C1.28048 4.5849 1.22701 4.09782 1.208 3.6088V3.6072C1.576 3.6208 2.0896 3.6616 2.6664 3.7672C3.8344 3.9808 5.1936 4.4472 6.172 5.4272ZM0.8536 11.6C1.52042 12.9233 2.54168 14.0354 3.80352 14.8123C5.06535 15.5892 6.51817 16.0004 8 16C9.48183 16.0004 10.9346 15.5892 12.1965 14.8123C13.4583 14.0354 14.4796 12.9233 15.1464 11.6H0.8536Z" fill="#00858E"/>
</svg>