<svg width="16" height="16" viewBox="0 0 16 16" fill="none" xmlns="http://www.w3.org/2000/svg">
<g id="documents 1">
<path id="Vector" d="M10.8573 0.875H3.21484C2.85037 0.875642 2.501 1.02071 2.24328 1.27844C1.98556 1.53616 1.84049 1.88552 1.83984 2.25V11.8225C1.84049 12.187 1.98556 12.5363 2.24328 12.7941C2.501 13.0518 2.85037 13.1969 3.21484 13.1975H10.8573C11.2218 13.1969 11.5712 13.0518 11.8289 12.7941C12.0866 12.5363 12.2317 12.187 12.2323 11.8225V2.25C12.2317 1.88552 12.0866 1.53616 11.8289 1.27843C11.5712 1.02071 11.2218 0.87564 10.8573 0.875ZM8.96484 10.3025H5.10734C5.00884 10.3011 4.91485 10.2609 4.8457 10.1907C4.77655 10.1206 4.73779 10.026 4.73779 9.92749C4.73779 9.82897 4.77656 9.73441 4.84571 9.66424C4.91486 9.59408 5.00885 9.55394 5.10736 9.5525H8.96484C9.06335 9.55394 9.15734 9.59408 9.22649 9.66425C9.29564 9.73442 9.33441 9.82898 9.33441 9.9275C9.33441 10.026 9.29564 10.1206 9.22649 10.1908C9.15734 10.2609 9.06335 10.3011 8.96484 10.3025ZM9.92734 7.41H4.14234C4.04384 7.40856 3.94985 7.36842 3.8807 7.29824C3.81155 7.22807 3.77279 7.13351 3.77279 7.03499C3.77279 6.93647 3.81156 6.84191 3.88071 6.77175C3.94986 6.70158 4.04385 6.66144 4.14236 6.66H9.92734C10.0259 6.66144 10.1198 6.70158 10.189 6.77175C10.2581 6.84192 10.2969 6.93648 10.2969 7.035C10.2969 7.13352 10.2581 7.22808 10.189 7.29825C10.1198 7.36842 10.0259 7.40856 9.92734 7.41ZM9.92734 4.5175H4.14234C4.04384 4.51606 3.94985 4.47592 3.8807 4.40574C3.81155 4.33557 3.77279 4.24101 3.77279 4.14249C3.77279 4.04397 3.81156 3.94941 3.88071 3.87925C3.94986 3.80908 4.04385 3.76894 4.14236 3.7675H9.92734C10.0259 3.76894 10.1198 3.80908 10.189 3.87925C10.2581 3.94942 10.2969 4.04398 10.2969 4.1425C10.2969 4.24102 10.2581 4.33558 10.189 4.40575C10.1198 4.47592 10.0259 4.51606 9.92734 4.5175Z" fill="#909090"/>
<path id="Vector_2" d="M3.78125 13.947C3.82012 14.2717 3.9767 14.5708 4.22135 14.7878C4.466 15.0049 4.78173 15.1246 5.10875 15.1245H12.8238C13.1787 15.1239 13.519 14.9825 13.7698 14.7312C14.0206 14.48 14.1614 14.1394 14.1613 13.7845V4.14195C14.161 3.81504 14.0411 3.49953 13.8242 3.25496C13.6072 3.0104 13.3083 2.8537 12.9838 2.81445V11.822C12.9834 12.3854 12.7594 12.9257 12.3609 13.3241C11.9625 13.7226 11.4222 13.9466 10.8588 13.947H3.78125Z" fill="#909090"/>
</g>
</svg>
