<svg xmlns="http://www.w3.org/2000/svg" width="72" height="72" viewBox="0 0 72 72" fill="none">
<path d="M45.8657 3.74414H7.59766L37.2977 59.2561H46.2617C48.6017 59.2561 50.4737 57.3121 50.4737 54.9361V8.42414C50.4737 5.83214 48.4217 3.74414 45.8657 3.74414Z" fill="#8DD5E5"/>
<path d="M37.2976 16.6321V64.0801C37.2976 66.9961 34.5616 69.0481 31.8256 68.1841L5.72556 59.9401C4.46556 59.5441 3.60156 58.3561 3.60156 57.0241V6.62408C3.60156 4.57208 5.61756 3.09608 7.59756 3.70808L34.0936 12.1321C36.0016 12.7801 37.2976 14.5801 37.2976 16.6321Z" fill="white"/>
<path d="M45.8638 3.74414H43.9918V48.4921C43.9918 50.8681 42.1198 52.8121 39.7798 52.8121H33.8398L37.2958 59.2921H46.2598C48.5998 59.2921 50.4718 57.3481 50.4718 54.9721V8.42414C50.4718 5.83214 48.4198 3.74414 45.8638 3.74414Z" fill="#2493A5"/>
<path d="M34.0576 12.1682L30.0976 10.9082V56.8802C30.0976 59.7962 27.3616 61.8482 24.6256 60.9842L3.60156 54.3602V57.0602C3.60156 58.3922 4.46556 59.5802 5.72556 59.9762L31.8256 68.2202C34.5256 69.0842 37.2976 66.9962 37.2976 64.1162V16.6322C37.2976 14.5802 36.0016 12.7802 34.0576 12.1682Z" fill="#EDEDED"/>
<path d="M67.4279 33.2992H50.4719C49.4639 33.2992 48.6719 32.5072 48.6719 31.4992C48.6719 30.4912 49.4639 29.6992 50.4719 29.6992H67.4279C68.4359 29.6992 69.2279 30.4912 69.2279 31.4992C69.2279 32.5072 68.4359 33.2992 67.4279 33.2992Z" fill="#2D4356"/>
<path d="M61.6329 40.0674C61.1649 40.0674 60.6969 39.8874 60.3729 39.5274C59.6529 38.8074 59.6529 37.6914 60.3729 36.9714L65.8809 31.4634L60.3729 25.9554C59.6529 25.2714 59.6529 24.1194 60.3729 23.3994C61.0929 22.6794 62.2089 22.6794 62.9289 23.3994L69.6969 30.1674C70.0209 30.4914 70.2369 30.9594 70.2369 31.4274C70.2369 31.8954 70.0569 32.3634 69.6969 32.6874L62.9289 39.4554C62.5329 39.8874 62.1009 40.0674 61.6329 40.0674ZM46.2609 61.0554H37.2969C36.2889 61.0554 35.4969 60.2634 35.4969 59.2554C35.4969 58.2474 36.2889 57.4554 37.2969 57.4554H46.2609C47.5929 57.4554 48.6729 56.3394 48.6729 54.9354V8.42336C48.6729 6.83936 47.4129 5.54336 45.8649 5.54336H7.59687C6.58887 5.54336 5.79688 4.75136 5.79688 3.74336C5.79688 2.73536 6.58887 1.94336 7.59687 1.94336H45.9009C49.4289 1.94336 52.3089 4.85936 52.3089 8.42336V54.9354C52.2729 58.3194 49.5729 61.0554 46.2609 61.0554Z" fill="#2D4356"/>
<path d="M33.0848 70.2005C32.4728 70.2005 31.8608 70.0925 31.2848 69.9125L5.18478 61.6685C3.16878 61.0205 1.80078 59.1845 1.80078 57.0605V6.66051C1.80078 5.11251 2.52078 3.67251 3.78078 2.73651C5.04078 1.80051 6.62478 1.54851 8.13678 2.01651L34.5968 10.4405C37.2968 11.3045 39.0968 13.7885 39.0968 16.6325V64.0805C39.0968 66.0605 38.1968 67.8605 36.6128 69.0485C35.5688 69.8045 34.3448 70.2005 33.0848 70.2005ZM6.66078 5.40051C6.40878 5.40051 6.15678 5.47251 5.90478 5.65251C5.58078 5.86851 5.40078 6.26451 5.40078 6.66051V57.0605C5.40078 57.6005 5.76078 58.1045 6.26478 58.2485L32.3648 66.4925C33.0848 66.7085 33.8408 66.6005 34.4528 66.1325C35.1008 65.6645 35.4608 64.9085 35.4608 64.0805V16.6325C35.4608 15.3725 34.6688 14.2565 33.4808 13.8605L7.05678 5.47251C6.91278 5.43651 6.76878 5.40051 6.66078 5.40051Z" fill="#2D4356"/>
<path d="M29.017 40.4281H26.425C25.417 40.4281 24.625 39.6361 24.625 38.6281C24.625 37.6201 25.417 36.8281 26.425 36.8281H29.017C30.025 36.8281 30.817 37.6201 30.817 38.6281C30.817 39.6361 30.025 40.4281 29.017 40.4281Z" fill="#2D4356"/>
</svg>