<svg xmlns="http://www.w3.org/2000/svg" width="14" height="16" viewBox="0 0 14 16" fill="#D6773F">
<path d="M6.99888 6.85714C8.89243 6.85714 10.4275 5.32212 10.4275 3.42857C10.4275 1.53502 8.89243 0 6.99888 0C5.10534 0 3.57031 1.53502 3.57031 3.42857C3.57031 5.32212 5.10534 6.85714 6.99888 6.85714Z" fill="#D6773F"/>
<path d="M0.191406 11.6203V11.9966C0.866492 13.2099 1.85357 14.2207 3.05046 14.9245C4.24735 15.6282 5.61058 15.9993 6.99902 15.9993C8.38747 15.9993 9.75069 15.6282 10.9476 14.9245C12.1445 14.2207 13.1316 13.2099 13.8066 11.9966V11.6203C12.9134 10.0525 11.5124 8.83615 9.83483 8.17188L9.23902 8.76845L7.26874 10.7387H6.73007L4.75903 8.76845L4.16245 8.17264C2.48525 8.83686 1.08455 10.0529 0.191406 11.6203Z" fill="#D6773F"/>
<path d="M4.96094 7.89546L5.60398 8.53851L6.99751 9.93127L8.39103 8.53775L9.03332 7.89546C7.70086 7.52703 6.2934 7.52703 4.96094 7.89546Z" fill="#D6773F"/>
</svg>