<svg width="16" height="16" viewBox="0 0 16 16" fill="none" xmlns="http://www.w3.org/2000/svg">
<g id="Group">
<path id="Vector" fill-rule="evenodd" clip-rule="evenodd" d="M5.366 8.112C4.51757 7.8867 2.80859 7.25492 2.80859 5.82184C2.80859 3.91611 5.13422 1.2973 5.13422 1.2973C5.13422 1.2973 5.8914 0 8.02157 0C10.1513 0 11.2397 1.2973 11.2397 1.2973C11.2397 1.2973 12.7545 2.99546 12.7545 5.82184C12.7545 7.27827 11.9001 7.8694 11.0719 8.10076C10.3991 8.90076 9.36167 9.408 8.214 9.408C7.07151 9.408 6.0393 8.90595 5.366 8.112ZM5.61681 6.88303C6.01638 7.84476 7.01443 8.54357 8.21357 8.54357C8.70654 8.54357 9.16535 8.42508 9.56276 8.21924L9.53594 8.21622C9.53594 8.21622 12.121 5.72195 9.94373 2.59459C9.70719 2.15481 6.10459 3.24324 5.6194 3.89189C5.32794 4.28108 5.46286 5.76216 5.61724 6.88303" fill="#919191"/>
<path id="Vector_2" d="M3.86155 12.2985C3.60065 12.4583 3.40464 12.7052 3.30814 12.9955C3.21164 13.2859 3.22085 13.601 3.33416 13.8852C3.44747 14.1694 3.65758 14.4044 3.92737 14.5487C4.19716 14.693 4.50927 14.7373 4.80856 14.6737C5.10785 14.6102 5.37505 14.443 5.56297 14.2015C5.75089 13.9601 5.84743 13.66 5.83553 13.3543C5.82363 13.0485 5.70406 12.7569 5.49795 12.5308C5.29183 12.3046 5.01243 12.1587 4.70911 12.1186C4.69291 12.0606 4.67806 12.0022 4.66457 11.9435C4.60544 11.6763 4.55926 11.4064 4.5262 11.1348C4.49047 10.8603 4.47026 10.5839 4.46565 10.3071C4.46476 10.2311 4.46692 10.1551 4.47214 10.0792C4.6382 10.0317 4.80511 9.98843 4.9716 9.95081C5.1623 9.90756 5.2756 10.1324 5.36684 10.3149L5.3716 10.3244L5.40403 10.388H10.4847C10.5837 10.2003 10.8081 9.90108 11.0257 9.95081C11.2574 10.0036 11.4905 10.0663 11.7214 10.138L11.7201 10.1385C11.7193 10.1376 11.7193 10.1376 11.7201 10.1393C11.7219 10.1454 11.7314 10.1739 11.7409 10.2345C11.7517 10.3045 11.7591 10.3953 11.7625 10.5048C11.7686 10.7227 11.756 10.9878 11.7305 11.255C11.7046 11.5218 11.6661 11.78 11.6228 11.9837C11.6133 12.0291 11.6038 12.0702 11.5943 12.1073H11.0257C10.9454 12.1074 10.8667 12.1298 10.7984 12.172C10.7301 12.2143 10.6749 12.2747 10.6391 12.3465L10.2066 13.2113C10.1765 13.2713 10.1608 13.3375 10.1608 13.4046V14.2695C10.1608 14.3842 10.2063 14.4942 10.2874 14.5753C10.3685 14.6564 10.4785 14.7019 10.5932 14.7019H11.4581V13.8371H11.0257V13.5067L11.2929 12.9722H12.4881L12.7554 13.5067V13.8371H12.323V14.7019H13.1878C13.3025 14.7019 13.4125 14.6564 13.4936 14.5753C13.5747 14.4942 13.6202 14.3842 13.6202 14.2695V13.4046C13.6202 13.3375 13.6045 13.2713 13.5744 13.2113L13.142 12.3465C13.1061 12.2747 13.0509 12.2143 12.9826 12.172C12.9144 12.1298 12.8357 12.1074 12.7554 12.1073H12.4804C12.5266 11.8769 12.5651 11.6079 12.5911 11.3381C12.6196 11.0466 12.6343 10.7443 12.627 10.4805L12.6265 10.4684C14.3511 11.1971 15.7824 12.3953 15.7824 13.6511V15.9992H0.214844V13.6511C0.214844 12.34 1.77592 11.0911 3.60122 10.3746C3.60598 10.6436 3.63149 10.9476 3.66825 11.2421C3.70803 11.5599 3.76209 11.876 3.82176 12.1363C3.83474 12.1921 3.84771 12.2462 3.86155 12.2985Z" fill="#919191"/>
<path id="Vector_3" d="M4.5379 13.8446C4.77055 13.8446 4.97033 13.6544 4.97033 13.4057C4.97033 13.1575 4.77055 12.9668 4.5379 12.9668C4.30525 12.9668 4.10547 13.1571 4.10547 13.4057C4.10547 13.6539 4.30525 13.8446 4.5379 13.8446Z" fill="#919191"/>
</g>
</svg>
