<svg width="25" height="24" viewBox="0 0 25 24" fill="none" xmlns="http://www.w3.org/2000/svg">
<path fill-rule="evenodd" clip-rule="evenodd" d="M12.5001 16C10.2921 16 8.50011 14.208 8.50011 12C8.50011 9.792 10.2921 8 12.5001 8C14.7081 8 16.5001 9.792 16.5001 12C16.5001 14.208 14.7081 16 12.5001 16ZM12.5001 14C11.3967 14 10.5001 13.1034 10.5001 12C10.5001 10.8966 11.3967 10 12.5001 10C13.6035 10 14.5001 10.8966 14.5001 12C14.5001 13.1034 13.6035 14 12.5001 14Z" fill="#8E8E8E"/>
<path fill-rule="evenodd" clip-rule="evenodd" d="M12.5001 4.5C7.7807 4.5 4.60257 7.27074 2.80594 11.2733C2.59854 11.7354 2.59854 12.2646 2.80595 12.7267C4.60257 16.7293 7.7807 19.5 12.5001 19.5C17.2195 19.5 20.3976 16.7293 22.1943 12.7267C22.4017 12.2646 22.4017 11.7354 22.1943 11.2733C20.3976 7.27074 17.2195 4.5 12.5001 4.5ZM12.5001 17.5C8.79348 17.5 6.23703 15.4221 4.67239 12C6.23703 8.57785 8.79348 6.5 12.5001 6.5C16.2067 6.5 18.7632 8.57785 20.3278 12C18.7632 15.4221 16.2067 17.5 12.5001 17.5Z" fill="#8E8E8E"/>
</svg>
