<svg width="16" height="16" viewBox="0 0 16 16" fill="none" xmlns="http://www.w3.org/2000/svg">
<path fill-rule="evenodd" clip-rule="evenodd" d="M8.00007 10.6667C6.52807 10.6667 5.3334 9.472 5.3334 8C5.3334 6.528 6.52807 5.33333 8.00007 5.33333C9.47207 5.33333 10.6667 6.528 10.6667 8C10.6667 9.472 9.47207 10.6667 8.00007 10.6667ZM8.00007 9.33333C7.26445 9.33333 6.66674 8.73562 6.66674 8C6.66674 7.26438 7.26445 6.66667 8.00007 6.66667C8.73569 6.66667 9.3334 7.26438 9.3334 8C9.3334 8.73562 8.73569 9.33333 8.00007 9.33333Z" fill="#3A70E2"/>
<path fill-rule="evenodd" clip-rule="evenodd" d="M8.00007 3C4.8538 3 2.73505 4.84716 1.5373 7.51556C1.39903 7.8236 1.39903 8.1764 1.5373 8.48444C2.73505 11.1528 4.8538 13 8.00007 13C11.1463 13 13.2651 11.1528 14.4628 8.48444C14.6011 8.1764 14.6011 7.8236 14.4628 7.51556C13.2651 4.84716 11.1463 3 8.00007 3ZM8.00007 11.6667C5.52898 11.6667 3.82469 10.2814 2.7816 8C3.82469 5.71857 5.52898 4.33333 8.00007 4.33333C10.4712 4.33333 12.1755 5.71857 13.2185 8C12.1755 10.2814 10.4712 11.6667 8.00007 11.6667Z" fill="#3A70E2"/>
</svg>
