<svg width="36" height="36" viewBox="0 0 36 36" fill="none" xmlns="http://www.w3.org/2000/svg">
<circle cx="18" cy="18" r="16.5" stroke="#27C195" stroke-width="3"/>
<path d="M28.5605 18.6465C28.5605 23.4902 25.0059 27.5137 20.3574 28.2168V21.459H22.623L23.0527 18.6465H20.3574V16.8496C20.3574 16.0684 20.748 15.3262 21.959 15.3262H23.1699V12.9434C23.1699 12.9434 22.0762 12.748 20.9824 12.748C18.7949 12.748 17.3496 14.1152 17.3496 16.5371V18.6465H14.8887V21.459H17.3496V28.2168C12.7012 27.5137 9.18555 23.4902 9.18555 18.6465C9.18555 13.2949 13.5215 8.95898 18.873 8.95898C24.2246 8.95898 28.5605 13.2949 28.5605 18.6465Z" fill="#27C195"/>
</svg>
