<svg xmlns="http://www.w3.org/2000/svg" width="80" height="80" viewBox="0 0 80 80" fill="none">
<path d="M59.0625 71.25H20.9375C17.5 71.25 14.6875 68.4375 14.6875 65V15C14.6875 11.5625 17.5 8.75 20.9375 8.75H59.0625C62.5 8.75 65.3125 11.5625 65.3125 15V65C65.3125 68.4375 62.5 71.25 59.0625 71.25Z" fill="white"/>
<path d="M29.8125 23.75H50.125V30H29.8125V23.75Z" fill="#ED97A0"/>
<path d="M36.875 16.6875H43.125V37H36.875V16.6875Z" fill="#ED97A0"/>
<path d="M55.3125 49.375H23.4375C22.375 49.375 21.5625 48.5625 21.5625 47.5C21.5625 46.4375 22.375 45.625 23.4375 45.625H55.3125C56.375 45.625 57.1875 46.4375 57.1875 47.5C57.1875 48.5625 56.375 49.375 55.3125 49.375ZM40 58.75H23.4375C22.375 58.75 21.5625 57.9375 21.5625 56.875C21.5625 55.8125 22.375 55 23.4375 55H40C41.0625 55 41.875 55.8125 41.875 56.875C41.875 57.9375 41.0625 58.75 40 58.75Z" fill="#C7D7E2"/>
<path d="M59.0625 73.125H20.9375C16.4375 73.125 12.8125 69.5 12.8125 65V15C12.8125 10.5 16.4375 6.875 20.9375 6.875H59.0625C63.5625 6.875 67.1875 10.5 67.1875 15V65C67.1875 69.5 63.5625 73.125 59.0625 73.125ZM20.9375 10.625C18.5 10.625 16.5625 12.5625 16.5625 15V65C16.5625 67.4375 18.5 69.375 20.9375 69.375H59.0625C61.5 69.375 63.4375 67.4375 63.4375 65V15C63.4375 12.5625 61.5 10.625 59.0625 10.625H20.9375Z" fill="#454B54"/>
</svg>