<svg width="24" height="24" viewBox="0 0 24 24" fill="none" xmlns="http://www.w3.org/2000/svg">
<g id="Info">
<path id="Color" fill-rule="evenodd" clip-rule="evenodd" d="M20 12C20 16.4183 16.4183 20 12 20C7.58172 20 4 16.4183 4 12C4 7.58172 7.58172 4 12 4C16.4183 4 20 7.58172 20 12ZM22 12C22 17.5228 17.5228 22 12 22C6.47715 22 2 17.5228 2 12C2 6.47715 6.47715 2 12 2C17.5228 2 22 6.47715 22 12ZM10.885 7.6714C10.8667 7.02994 11.3817 6.5 12.0234 6.5C12.6652 6.5 13.1802 7.02993 13.1618 7.6714L13.0359 12.0785C13.0203 12.6264 12.5716 13.0625 12.0234 13.0625C11.4753 13.0625 11.0266 12.6264 11.0109 12.0785L10.885 7.6714ZM13.2969 15.7422C13.2969 16.4297 12.7344 16.9688 12.0234 16.9688C11.3125 16.9688 10.75 16.4297 10.75 15.7422C10.75 15.0547 11.3125 14.5156 12.0234 14.5156C12.7344 14.5156 13.2969 15.0547 13.2969 15.7422Z" fill="#3A70E2"/>
</g>
</svg>
