<svg xmlns="http://www.w3.org/2000/svg" width="24" height="24" viewBox="0 0 24 24" fill="none">
<rect width="24" height="24" fill="white"/>
<path fill-rule="evenodd" clip-rule="evenodd" d="M12 2C6.47715 2 2 6.47715 2 12C2 17.5228 6.47715 22 12 22C17.5228 22 22 17.5228 22 12C22 6.47715 17.5228 2 12 2ZM13.115 16.3286C13.1333 16.9701 12.6183 17.5 11.9766 17.5C11.3348 17.5 10.8198 16.9701 10.8382 16.3286L10.9641 11.9215C10.9797 11.3736 11.4284 10.9375 11.9766 10.9375C12.5247 10.9375 12.9734 11.3736 12.9891 11.9215L13.115 16.3286ZM10.7031 8.25781C10.7031 7.57031 11.2656 7.03125 11.9766 7.03125C12.6875 7.03125 13.25 7.57031 13.25 8.25781C13.25 8.94531 12.6875 9.48438 11.9766 9.48438C11.2656 9.48438 10.7031 8.94531 10.7031 8.25781Z" fill="#4EB170"/>
</svg>
