<svg width="36" height="36" viewBox="0 0 36 36" fill="none" xmlns="http://www.w3.org/2000/svg">
<circle cx="18" cy="18" r="16.5" stroke="#27C195" stroke-width="3"/>
<path d="M17.873 14.1543C20.334 14.1543 22.3652 16.1855 22.3652 18.6465C22.3652 21.1465 20.334 23.1387 17.873 23.1387C15.373 23.1387 13.3809 21.1465 13.3809 18.6465C13.3809 16.1855 15.373 14.1543 17.873 14.1543ZM17.873 21.5762C19.4746 21.5762 20.7637 20.2871 20.7637 18.6465C20.7637 17.0449 19.4746 15.7559 17.873 15.7559C16.2324 15.7559 14.9434 17.0449 14.9434 18.6465C14.9434 20.2871 16.2715 21.5762 17.873 21.5762ZM23.5762 13.998C23.5762 14.584 23.1074 15.0527 22.5215 15.0527C21.9355 15.0527 21.4668 14.584 21.4668 13.998C21.4668 13.4121 21.9355 12.9434 22.5215 12.9434C23.1074 12.9434 23.5762 13.4121 23.5762 13.998ZM26.5449 15.0527C26.623 16.498 26.623 20.834 26.5449 22.2793C26.4668 23.6855 26.1543 24.8965 25.1387 25.9512C24.123 26.9668 22.873 27.2793 21.4668 27.3574C20.0215 27.4355 15.6855 27.4355 14.2402 27.3574C12.834 27.2793 11.623 26.9668 10.5684 25.9512C9.55273 24.8965 9.24023 23.6855 9.16211 22.2793C9.08398 20.834 9.08398 16.498 9.16211 15.0527C9.24023 13.6465 9.55273 12.3965 10.5684 11.3809C11.623 10.3652 12.834 10.0527 14.2402 9.97461C15.6855 9.89648 20.0215 9.89648 21.4668 9.97461C22.873 10.0527 24.123 10.3652 25.1387 11.3809C26.1543 12.3965 26.4668 13.6465 26.5449 15.0527ZM24.6699 23.8027C25.1387 22.6699 25.0215 19.9355 25.0215 18.6465C25.0215 17.3965 25.1387 14.6621 24.6699 13.4902C24.3574 12.748 23.7715 12.123 23.0293 11.8496C21.8574 11.3809 19.123 11.498 17.873 11.498C16.584 11.498 13.8496 11.3809 12.7168 11.8496C11.9355 12.1621 11.3496 12.748 11.0371 13.4902C10.5684 14.6621 10.6855 17.3965 10.6855 18.6465C10.6855 19.9355 10.5684 22.6699 11.0371 23.8027C11.3496 24.584 11.9355 25.1699 12.7168 25.4824C13.8496 25.9512 16.584 25.834 17.873 25.834C19.123 25.834 21.8574 25.9512 23.0293 25.4824C23.7715 25.1699 24.3965 24.584 24.6699 23.8027Z" fill="#27C195"/>
</svg>
