<svg xmlns="http://www.w3.org/2000/svg" width="27" height="36" viewBox="0 0 27 36" fill="none">
<path d="M26.9995 34.1989L26.9995 1.79799C26.9985 1.46995 26.908 1.1484 26.7378 0.86795C26.5676 0.587502 26.3242 0.358776 26.0337 0.206398C25.7432 0.0540161 25.4166 -0.0162544 25.0891 0.00315857C24.7617 0.0225677 24.4457 0.13092 24.1752 0.316551L0.774546 16.517C-0.195682 17.1884 -0.195682 18.8049 0.774546 19.4781L24.1752 35.6786C24.4451 35.8661 24.7612 35.976 25.0893 35.9965C25.4173 36.017 25.7446 35.9472 26.0358 35.7946C26.3269 35.6421 26.5706 35.4127 26.7405 35.1314C26.9104 34.8501 27 34.5276 26.9995 34.1989Z" fill="#77EFFF"/>
</svg>