<svg xmlns="http://www.w3.org/2000/svg" width="72" height="72" viewBox="0 0 72 72" fill="none">
<path d="M36.2241 69.7508C52.4804 63.057 60.2429 44.4945 53.6054 28.2383C37.3491 34.932 29.5866 53.4945 36.2241 69.7508Z" fill="#F7ADF9"/>
<path d="M48.0383 61.3129C53.6633 54.9004 56.532 46.4066 55.857 37.8004C54.957 38.0254 54.057 38.3066 53.2133 38.5879C52.257 38.9254 51.1883 38.3066 51.0195 37.2941C50.6258 34.9879 50.007 32.6816 49.2195 30.4316C39.9945 36.0004 34.4258 45.7316 33.9195 56.1379C33.9195 56.7004 33.8633 57.2066 33.8633 57.7691C33.8633 57.8254 33.8633 57.8254 33.8633 57.8816C33.8633 58.3879 33.8633 58.9504 33.9195 59.4566V59.5129C33.9758 60.6379 34.0883 61.7629 34.3133 62.8879C34.3133 62.9441 34.3133 62.9441 34.3133 63.0004C34.3695 63.5066 34.482 63.9566 34.5945 64.4629C34.6508 64.6316 34.6508 64.7441 34.707 64.9129C34.8195 65.3066 34.8758 65.7004 34.9883 66.0941C35.0445 66.2629 35.1008 66.4316 35.157 66.6004C35.2695 66.9941 35.382 67.3316 35.4945 67.7254C35.5508 67.8941 35.607 68.0629 35.6633 68.1754C35.832 68.6816 36.057 69.1879 36.2258 69.7504C36.732 69.5254 37.2383 69.3004 37.7445 69.0754C37.857 69.0191 38.0258 68.9629 38.1383 68.9066C38.5883 68.6816 39.0383 68.4566 39.432 68.2316C39.4883 68.1754 39.5445 68.1754 39.6008 68.1191C40.107 67.8379 40.557 67.5566 41.0633 67.2754C41.1758 67.2191 41.2883 67.1629 41.4008 67.0504C41.7945 66.7691 42.1883 66.4879 42.6383 66.2066C42.6945 66.2066 42.6945 66.1504 42.7508 66.1504C43.707 65.4754 44.607 64.7441 45.4508 63.9566L45.507 63.9004C46.4633 63.0566 47.2508 62.2129 48.0383 61.3129Z" fill="#C26DAF"/>
<path d="M36.2243 71.4366C35.5493 71.4366 34.9305 71.0428 34.6493 70.3678C31.2743 62.099 31.2743 52.9866 34.7055 44.7178C38.1368 36.4491 44.6055 30.0366 52.8743 26.6616C53.718 26.3241 54.7305 26.7178 55.068 27.5616C58.443 35.8303 58.443 44.9428 55.0118 53.2115C51.5805 61.4803 45.1118 67.8928 36.843 71.2678C36.6743 71.3803 36.4493 71.4366 36.2243 71.4366ZM52.6493 30.4866C45.9555 33.6928 40.7805 39.1491 37.8555 46.0116C34.9305 52.8741 34.7618 60.4678 37.1805 67.4428C43.8743 64.2366 49.0493 58.7803 51.9743 51.9178C54.8993 45.0553 55.068 37.5178 52.6493 30.4866Z" fill="#444B54"/>
<path d="M36.3935 69.7508C20.1373 63.057 12.3748 44.4945 19.0685 28.2383C35.3248 34.932 43.0873 53.4945 36.3935 69.7508Z" fill="#F7ADF9"/>
<path d="M23.1741 30.2617C19.5741 40.0492 19.8553 50.9055 23.9615 60.5242C27.1678 64.4617 31.3866 67.668 36.4491 69.7492C42.5241 54.8992 36.5616 38.193 23.1741 30.2617Z" fill="white"/>
<path d="M36.1701 71.4371C35.9451 71.4371 35.7201 71.3809 35.5513 71.3246C34.7076 70.9871 34.2576 69.9746 34.6513 69.1309C37.6888 61.7059 37.6888 53.4934 34.5951 46.0684C31.7263 39.2059 26.4951 33.6934 19.8013 30.5434C19.0701 32.6246 18.5638 34.7621 18.3388 36.9559C18.2263 37.8559 17.3826 38.5309 16.4826 38.4184C15.5826 38.3059 14.9076 37.4621 15.0201 36.5621C15.3576 33.5246 16.1451 30.4871 17.3263 27.6184C17.4951 27.2246 17.8326 26.8871 18.2263 26.7184C18.6201 26.5496 19.1263 26.5496 19.5201 26.7184C27.7888 30.0934 34.2576 36.5621 37.6888 44.7746C41.1201 53.0434 41.1763 62.1559 37.7451 70.4246C37.4638 71.0434 36.8451 71.4371 36.1701 71.4371Z" fill="#444B54"/>
<path d="M36 69.75C51.3562 69.75 63.8438 57.2625 63.8438 41.9062C60.0187 41.9062 56.3625 42.6938 52.9875 44.1C50.2875 45.225 47.8125 48.4875 45.6187 50.4C39.7125 55.5187 36 61.3687 36 69.75Z" fill="#F7ADF9"/>
<path d="M51.6938 44.7188C42.4125 49.2188 36 58.7812 36 69.75C38.7 69.75 41.2875 69.3563 43.7625 68.625C48.9938 61.5375 51.6375 53.1562 51.6938 44.7188Z" fill="#C26DAF"/>
<path d="M36 69.75C20.6438 69.75 8.15625 57.2625 8.15625 41.9062C23.5125 41.9062 36 54.3938 36 69.75Z" fill="#F7ADF9"/>
<path d="M36.0008 69.75C21.9945 55.7438 21.9945 33.1312 36.0008 19.125C50.007 33.1312 50.007 55.7438 36.0008 69.75Z" fill="#F7ADF9"/>
<path d="M39.2613 61.4248C38.9801 61.4248 38.6988 61.3685 38.4738 61.1998C37.6301 60.7498 37.3488 59.7373 37.7988 58.8935C41.2301 52.481 42.2426 45.056 40.7238 37.9123C40.5551 37.0123 41.1176 36.1123 42.0176 35.8873C42.9176 35.7185 43.8176 36.281 44.0426 37.181C45.7301 45.1123 44.5488 53.3248 40.7801 60.4123C40.4426 61.1435 39.8801 61.4248 39.2613 61.4248Z" fill="#C26DAF"/>
<path d="M55.6875 68.0625H49.6688C59.0625 63.1125 65.5312 53.2687 65.5312 41.9062C65.5312 40.95 64.8 40.2188 63.8438 40.2188C59.85 40.2188 55.9688 41.0062 52.3687 42.525C51.525 42.8625 51.1312 43.875 51.4688 44.7188C51.8063 45.5625 52.8188 45.9562 53.6625 45.6187C56.3625 44.4937 59.175 43.8188 62.1 43.5938C61.3125 55.8563 51.975 65.8125 40.05 67.6688C45.3937 60.975 48.2625 52.7063 48.15 44.0438C48.0938 34.1438 44.1562 24.8625 37.1812 17.8313C36.5625 17.2125 35.4375 17.2125 34.8188 17.8313C22.8938 29.8687 20.4187 48.375 28.7437 63C29.1937 63.7875 30.2625 64.0687 31.05 63.6187C31.8375 63.1688 32.1187 62.1 31.6687 61.3125C24.3562 48.4875 26.2125 32.4 36 21.5437C41.625 27.7312 44.7188 35.7188 44.775 44.1562C44.8312 53.1 41.4562 61.5938 35.2688 68.0625C21.7688 67.725 10.7438 57.0375 9.84375 43.65C12.6562 43.8187 15.4125 44.4937 18.0562 45.5625C18.9 45.9 19.9125 45.5063 20.25 44.6625C20.5875 43.8188 20.1938 42.8062 19.35 42.4688C15.8063 41.0063 12.0375 40.275 8.15625 40.275C7.2 40.275 6.46875 41.0062 6.46875 41.9625C6.46875 53.325 12.8813 63.1688 22.3313 68.1187H16.3125C15.3562 68.1187 14.625 68.85 14.625 69.8062C14.625 70.7625 15.3562 71.4937 16.3125 71.4937H55.6875C56.6437 71.4937 57.375 70.7625 57.375 69.8062C57.375 68.85 56.6437 68.0625 55.6875 68.0625Z" fill="#444B54"/>
<path d="M64.125 71.4375C65.057 71.4375 65.8125 70.682 65.8125 69.75C65.8125 68.818 65.057 68.0625 64.125 68.0625C63.193 68.0625 62.4375 68.818 62.4375 69.75C62.4375 70.682 63.193 71.4375 64.125 71.4375Z" fill="#444B54"/>
</svg>