<svg width="20" height="20" viewBox="0 0 20 20" fill="none" xmlns="http://www.w3.org/2000/svg">
<path d="M10.6802 9.7522C10.499 9.91171 10.2637 10 10.0197 10C9.77572 10 9.54039 9.91171 9.35926 9.7522L1 2.33663C1.32802 2.1174 1.71631 2.00005 2.11391 2H17.8861C18.2837 2.00005 18.672 2.1174 19 2.33663L10.6802 9.7522Z" fill="#C6C6C6"/>
<path d="M20 4V14.9432C20 15.7539 19.6839 16.5314 19.1213 17.1047C18.5587 17.6779 17.7956 18 17 18H3C2.20435 18 1.44129 17.6779 0.87868 17.1047C0.316071 16.5314 0 15.7539 0 14.9432V4L8.68 12.0699C9.04606 12.3938 9.51515 12.5712 10 12.5691C10.4909 12.5681 10.9643 12.3832 11.33 12.0495L20 4Z" fill="#C6C6C6"/>
</svg>
