<svg xmlns="http://www.w3.org/2000/svg" width="80" height="80" viewBox="0 0 80 80" fill="none">
<path d="M40 74.375C58.9848 74.375 74.375 58.9848 74.375 40C74.375 21.0152 58.9848 5.625 40 5.625C21.0152 5.625 5.625 21.0152 5.625 40C5.625 58.9848 21.0152 74.375 40 74.375Z" fill="white"/>
<path d="M11.375 63.4375C11.375 47.625 24.1875 34.8125 40 34.8125C55.8125 34.8125 68.625 47.625 68.625 63.4375" fill="#CFCECE"/>
<path opacity="0.2" d="M39.9996 34.8125C55.8121 34.8125 68.6246 47.625 68.6246 63.4375H57.1871C57.1871 49.5625 53.0621 38 39.9996 35.375C41.8746 35 38.0621 34.8125 39.9996 34.8125Z" fill="black"/>
<path d="M68.625 65.3125C67.5625 65.3125 66.75 64.5 66.75 63.4375C66.75 48.6875 54.75 36.6875 40 36.6875C25.25 36.6875 13.25 48.6875 13.25 63.4375C13.25 64.5 12.4375 65.3125 11.375 65.3125C10.3125 65.3125 9.5 64.5 9.5 63.4375C9.5 46.625 23.1875 32.9375 40 32.9375C56.8125 32.9375 70.5 46.625 70.5 63.4375C70.5 64.5 69.6875 65.3125 68.625 65.3125Z" fill="#454B54"/>
<path d="M23.125 59.6253C22.0625 59.6253 21.25 58.8128 21.25 57.7503C21.25 51.0003 24.3125 44.4378 27.1875 41.7503C27.9375 41.0628 29.125 41.0628 29.8125 41.8128C30.5 42.5628 30.5 43.7503 29.75 44.4378C27.5 46.6253 25 52.3128 25 57.7503C25 58.7503 24.1875 59.6253 23.125 59.6253Z" fill="white"/>
<path d="M72.625 63.4375H7.3125C6.375 63.4375 5.5625 64.1875 5.5625 65.1875C5.5625 66.125 6.3125 66.9375 7.3125 66.9375H72.625C73.5625 66.9375 74.375 66.1875 74.375 65.1875C74.375 64.25 73.625 63.4375 72.625 63.4375Z" fill="#939292"/>
<path opacity="0.5" d="M11.375 65.1875C11.375 64.25 12.125 63.4375 13.125 63.4375H7.375C6.4375 63.4375 5.625 64.1875 5.625 65.1875C5.625 66.125 6.375 66.9375 7.375 66.9375H13.125C12.125 66.875 11.375 66.125 11.375 65.1875Z" fill="white"/>
<path d="M74.375 67.0625C73.375 67.0625 72.5625 66.3125 72.5 65.3125H7.5C7.4375 66.25 6.625 67.0625 5.625 67.0625C4.5625 67.0625 3.75 66.25 3.75 65.1875C3.75 63.1875 5.375 61.5625 7.375 61.5625H72.6875C74.6875 61.5625 76.3125 63.1875 76.3125 65.1875C76.25 66.1875 75.4375 67.0625 74.375 67.0625ZM44.3125 36.6875C43.25 36.6875 42.4375 35.875 42.4375 34.8125V30.5C42.4375 29.1875 41.375 28.0625 40 28.0625C38.625 28.0625 37.5625 29.125 37.5625 30.5V34.8125C37.5625 35.875 36.75 36.6875 35.6875 36.6875C34.625 36.6875 33.8125 35.875 33.8125 34.8125V30.5C33.8125 27.125 36.5625 24.3125 40 24.3125C43.4375 24.3125 46.1875 27.0625 46.1875 30.5V34.8125C46.1875 35.875 45.3125 36.6875 44.3125 36.6875ZM74.375 35.4375H61.3125C60.25 35.4375 59.4375 34.625 59.4375 33.5625C59.4375 32.5 60.25 31.6875 61.3125 31.6875H74.375C75.4375 31.6875 76.25 32.5 76.25 33.5625C76.25 34.625 75.4375 35.4375 74.375 35.4375ZM74.375 42.4375H68.75C67.6875 42.4375 66.875 41.625 66.875 40.5625C66.875 39.5 67.6875 38.6875 68.75 38.6875H74.375C75.4375 38.6875 76.25 39.5 76.25 40.5625C76.25 41.625 75.4375 42.4375 74.375 42.4375ZM74.375 49.375H72.75C71.6875 49.375 70.875 48.5625 70.875 47.5C70.875 46.4375 71.6875 45.625 72.75 45.625H74.375C75.4375 45.625 76.25 46.4375 76.25 47.5C76.25 48.5625 75.4375 49.375 74.375 49.375Z" fill="#454B54"/>
<path d="M74.375 68.3125C73.3125 68.3125 72.5 67.5 72.5 66.4375V65.1875C72.5 64.125 73.3125 63.3125 74.375 63.3125C75.4375 63.3125 76.25 64.125 76.25 65.1875V66.4375C76.25 67.4375 75.4375 68.3125 74.375 68.3125Z" fill="#454B54"/>
</svg>