<svg xmlns="http://www.w3.org/2000/svg" width="22" height="16" viewBox="0 0 22 16" fill="#00858E">
<path d="M4.71484 0C2.50413 0 0.714844 1.78929 0.714844 4V12C0.714844 14.2107 2.50413 16 4.71484 16C6.92556 16 8.71484 14.2107 8.71484 12V4C8.71484 1.78929 6.92556 0 4.71484 0ZM6.42913 8H3.00056V4C3.00056 3.05357 3.76842 2.28571 4.71484 2.28571C5.66127 2.28571 6.42913 3.05357 6.42913 4V8ZM11.4184 6.93929C11.2934 6.81429 11.0827 6.82857 10.9791 6.96786C9.36127 9.2 9.53627 12.3286 11.547 14.3393C13.5577 16.35 16.6863 16.525 18.9184 14.9071C19.0613 14.8036 19.072 14.5929 18.947 14.4679L11.4184 6.93929ZM19.6256 6.26071C17.6148 4.25 14.4863 4.075 12.2541 5.69286C12.1113 5.79643 12.1006 6.00714 12.2256 6.13214L19.7541 13.6607C19.8791 13.7857 20.0898 13.7714 20.1934 13.6321C21.8113 11.3964 21.6398 8.27143 19.6256 6.26071Z" fill="#00858E"/>
</svg>