<svg xmlns="http://www.w3.org/2000/svg" width="80" height="80" viewBox="0 0 80 80" fill="none">
<path d="M49.375 77.5H30.625C27.1875 77.5 24.375 74.6875 24.375 71.25V40H55.625V71.25C55.625 74.6875 52.8125 77.5 49.375 77.5Z" fill="white"/>
<path d="M44.375 18.125V13.125C44.375 10.6875 42.4375 8.75 40 8.75C37.5625 8.75 35.625 10.6875 35.625 13.125V18.125C32.875 18.125 30.625 20.375 30.625 23.125V26.25H49.375V23.125C49.375 20.375 47.125 18.125 44.375 18.125Z" fill="#FFF0B3"/>
<path d="M31.3128 22.5C31.0003 22.5 30.6878 22.4375 30.3753 22.25C29.5003 21.75 29.1878 20.5625 29.6878 19.6875C30.9378 17.5625 33.1878 16.25 35.6253 16.25C36.6878 16.25 37.5003 17.0625 37.5003 18.125C37.5003 19.1875 36.6878 20 35.6253 20C34.5003 20 33.5003 20.625 32.9378 21.5625C32.5628 22.1875 31.9378 22.5 31.3128 22.5Z" fill="#444B54"/>
<path d="M44.375 20C43.3125 20 42.5 19.1875 42.5 18.125V13.125C42.5 11.75 41.375 10.625 40 10.625C38.625 10.625 37.5 11.75 37.5 13.125V18.125C37.5 19.1875 36.6875 20 35.625 20C34.5625 20 33.75 19.1875 33.75 18.125V13.125C33.75 9.6875 36.5625 6.875 40 6.875C43.4375 6.875 46.25 9.6875 46.25 13.125V18.125C46.25 19.1875 45.4375 20 44.375 20Z" fill="#444B54"/>
<path d="M59.375 40H20.625V33.75C20.625 32.6875 21.4375 31.875 22.5 31.875H24.375V28.125C24.375 27.0625 25.1875 26.25 26.25 26.25H53.75C54.8125 26.25 55.625 27.0625 55.625 28.125V31.875H57.5C58.5625 31.875 59.375 32.6875 59.375 33.75V40Z" fill="#91F2BD"/>
<path d="M59.375 31.875C59.375 30.8125 58.5625 30 57.5 30H55.625V28.125C55.625 27.0625 54.8125 26.25 53.75 26.25H47.875H47.5V30H36.25C35.1875 30 34.375 30.8125 34.375 31.875C34.375 32.9375 35.1875 33.75 36.25 33.75H50.625V40H59.375V33.75C59.375 33.375 59.25 33.0625 59.125 32.8125C59.25 32.5625 59.375 32.25 59.375 31.875Z" fill="#6DC289"/>
<path d="M57.5 30V28.125C57.5 26.0625 55.8125 24.375 53.75 24.375H26.25C24.1875 24.375 22.5 26.0625 22.5 28.125V30C20.4375 30 18.75 31.6875 18.75 33.75V40C18.75 41.0625 19.5625 41.875 20.625 41.875H53.75V71.25C53.75 73.6875 51.8125 75.625 49.375 75.625H30.625C28.1875 75.625 26.25 73.6875 26.25 71.25V46.25C26.25 45.1875 25.4375 44.375 24.375 44.375C23.3125 44.375 22.5 45.1875 22.5 46.25V71.25C22.5 75.75 26.125 79.375 30.625 79.375H49.375C53.875 79.375 57.5 75.75 57.5 71.25V41.875H59.375C60.4375 41.875 61.25 41.0625 61.25 40V33.75C61.25 31.6875 59.5625 30 57.5 30ZM57.5 38.125H22.5V33.75H24.375C25.4375 33.75 26.25 32.9375 26.25 31.875V28.125H53.75V31.875C53.75 32.9375 54.5625 33.75 55.625 33.75H57.5V38.125Z" fill="#444B54"/>
<path d="M34.375 68.125H30V62.5H34.375C35.4375 62.5 36.25 61.6875 36.25 60.625C36.25 59.5625 35.4375 58.75 34.375 58.75H30V53.125H34.375C35.4375 53.125 36.25 52.3125 36.25 51.25C36.25 50.1875 35.4375 49.375 34.375 49.375H30V46.25C30 45.1875 29.1875 44.375 28.125 44.375C27.0625 44.375 26.25 45.1875 26.25 46.25V70C26.25 71.0625 27.0625 71.875 28.125 71.875H34.375C35.4375 71.875 36.25 71.0625 36.25 70C36.25 68.9375 35.4375 68.125 34.375 68.125Z" fill="#C3DBEA"/>
<path d="M48.6875 22.5C48.0625 22.5 47.4375 22.1875 47.0625 21.5625C46.5 20.625 45.5 20 44.375 20C43.3125 20 42.5 19.1875 42.5 18.125C42.5 17.0625 43.3125 16.25 44.375 16.25C46.8125 16.25 49.125 17.5625 50.3125 19.6875C50.8125 20.5625 50.5 21.75 49.625 22.25C49.375 22.4375 49 22.5 48.6875 22.5Z" fill="#444B54"/>
</svg>