<svg width="32" height="28" viewBox="0 0 32 28" fill="none" xmlns="http://www.w3.org/2000/svg">
<path id="Vector" d="M23.226 0.264648C21.7486 0.287629 20.3034 0.700056 19.0363 1.46028C17.7693 2.22051 16.7253 3.30161 16.0097 4.59441C15.2942 3.30161 14.2502 2.22051 12.9831 1.46028C11.7161 0.700056 10.2709 0.287629 8.79346 0.264648C6.43825 0.366976 4.21927 1.39728 2.6213 3.13047C1.02332 4.86366 0.176249 7.15884 0.265141 9.5146C0.265141 15.4805 6.54461 21.9961 11.8112 26.4138C12.9871 27.4019 14.4738 27.9437 16.0097 27.9437C17.5457 27.9437 19.0324 27.4019 20.2083 26.4138C25.4749 21.9961 31.7543 15.4805 31.7543 9.5146C31.8432 7.15884 30.9961 4.86366 29.3982 3.13047C27.8002 1.39728 25.5812 0.366976 23.226 0.264648ZM18.5223 24.4064C17.819 24.9986 16.9292 25.3234 16.0097 25.3234C15.0903 25.3234 14.2004 24.9986 13.4972 24.4064C6.75585 18.7501 2.88924 13.3235 2.88924 9.5146C2.79955 7.85448 3.36993 6.22625 4.47598 4.98501C5.58204 3.74377 7.13403 2.99023 8.79346 2.88875C10.4529 2.99023 12.0049 3.74377 13.1109 4.98501C14.217 6.22625 14.7874 7.85448 14.6977 9.5146C14.6977 9.86257 14.8359 10.1963 15.082 10.4424C15.328 10.6884 15.6618 10.8266 16.0097 10.8266C16.3577 10.8266 16.6914 10.6884 16.9375 10.4424C17.1835 10.1963 17.3218 9.86257 17.3218 9.5146C17.2321 7.85448 17.8025 6.22625 18.9085 4.98501C20.0146 3.74377 21.5666 2.99023 23.226 2.88875C24.8854 2.99023 26.4374 3.74377 27.5435 4.98501C28.6495 6.22625 29.2199 7.85448 29.1302 9.5146C29.1302 13.3235 25.2636 18.7501 18.5223 24.4011V24.4064Z" fill="white"/>
</svg>
