<svg width="33" height="33" viewBox="0 0 33 33" fill="none" xmlns="http://www.w3.org/2000/svg">
<path id="Vector" d="M32.115 26.9278L30.7283 19.1092C31.2997 18.5933 31.7311 17.9411 31.9825 17.2135C32.2339 16.486 32.2971 15.7066 32.1661 14.948C32.0352 14.1894 31.7144 13.4763 31.2336 12.8751C30.7528 12.2739 30.1277 11.8042 29.4165 11.5096C28.8925 8.51019 27.3416 5.78639 25.0294 3.8052C22.7172 1.82401 19.7879 0.708825 16.7435 0.65082C13.6992 0.592815 10.7295 1.5956 8.34357 3.48728C5.95761 5.37895 4.30398 8.04169 3.66617 11.019L2.71377 16.3976H4.68155C7.03705 16.3831 9.3599 15.8454 11.4822 14.8234C11.3268 15.1047 11.2439 15.4203 11.2408 15.7417C11.239 16.1238 11.3485 16.4981 11.5559 16.819C11.7633 17.1399 12.0596 17.3935 12.4087 17.5488C12.7578 17.7041 13.1446 17.7544 13.5218 17.6935C13.899 17.6327 14.2504 17.4634 14.533 17.2062C14.8156 16.949 15.0172 16.6152 15.1132 16.2453C15.2092 15.8755 15.1955 15.4857 15.0737 15.1236C14.9519 14.7614 14.7273 14.4426 14.4273 14.2059C14.1273 13.9693 13.7649 13.8251 13.3844 13.7909C16.1833 12.0446 18.5537 9.6913 20.3201 6.90505C19.5476 6.47621 18.7079 6.18167 17.8368 6.03398C15.8192 9.02369 11.5255 13.2006 5.85303 13.7201L6.24002 11.5306C6.77562 9.09976 8.15781 6.93839 10.1398 5.43247C12.1217 3.92654 14.5745 3.17411 17.06 3.30954C19.5455 3.44496 21.9019 4.45941 23.7085 6.17175C25.5152 7.88409 26.6543 10.1828 26.9227 12.6575L27.025 13.6362L27.9931 13.8106C28.4711 13.9041 28.8974 14.1715 29.1896 14.5611C29.4818 14.9507 29.6192 15.4348 29.5751 15.9198C29.531 16.4049 29.3087 16.8563 28.9511 17.1869C28.5934 17.5174 28.1259 17.7036 27.6389 17.7094C27.5261 17.7094 26.2129 17.4799 26.2129 17.4799L25.843 18.5294C24.64 21.9362 20.5943 25.5805 16.4882 25.5805C12.735 25.5805 9.03951 22.5331 7.51252 19.4149L6.84347 23.1917C8.09095 24.7208 9.63664 25.9799 11.3864 26.8924H11.2408V29.5161H4.99377C4.75019 29.5153 4.50991 29.4598 4.29059 29.3538C4.07127 29.2479 3.8785 29.0941 3.72646 28.9038C3.57442 28.7135 3.46699 28.4915 3.41206 28.2542C3.35713 28.0169 3.3561 27.7703 3.40905 27.5326L4.91768 19.0056C4.83897 19.0056 4.76157 19.02 4.68155 19.02H2.25069L0.831267 27.0433C0.705436 27.6603 0.718375 28.2976 0.869147 28.909C1.01992 29.5204 1.30475 30.0907 1.70303 30.5785C2.10131 31.0663 2.60306 31.4594 3.17197 31.7295C3.74088 31.9995 4.36271 32.1397 4.99246 32.1398H13.8645V27.8553C15.5827 28.3205 17.3937 28.3205 19.1119 27.8553V32.1398H27.9826C28.6314 32.1418 29.2719 31.9941 29.8543 31.7084C30.4368 31.4226 30.9455 31.0064 31.341 30.4921C31.7322 29.9958 32.0052 29.4169 32.1393 28.7993C32.2734 28.1817 32.2651 27.5417 32.115 26.9278ZM29.2656 28.8864C29.1146 29.0829 28.9202 29.242 28.6977 29.3512C28.4752 29.4604 28.2305 29.5168 27.9826 29.5161H21.7356V26.8321C24.4434 25.3763 26.6176 23.0965 27.9433 20.3227C28.0548 20.3161 28.1597 20.2846 28.2686 20.2702L29.5529 27.4853C29.6162 27.7252 29.6233 27.9765 29.5734 28.2195C29.5236 28.4626 29.4182 28.6908 29.2656 28.8864ZM19.7678 17.7094C19.3786 17.7094 18.9982 17.594 18.6746 17.3778C18.351 17.1616 18.0988 16.8543 17.9498 16.4947C17.8009 16.1351 17.7619 15.7395 17.8379 15.3578C17.9138 14.9761 18.1012 14.6254 18.3764 14.3502C18.6516 14.075 19.0022 13.8876 19.3839 13.8117C19.7656 13.7358 20.1613 13.7747 20.5209 13.9237C20.8804 14.0726 21.1877 14.3248 21.404 14.6484C21.6202 14.972 21.7356 15.3525 21.7356 15.7417C21.7356 16.2636 21.5283 16.7641 21.1592 17.1331C20.7902 17.5021 20.2897 17.7094 19.7678 17.7094Z" fill="white"/>
</svg>
