<svg width="36" height="37" viewBox="0 0 36 37" fill="none" xmlns="http://www.w3.org/2000/svg">
<g id="Search">
<path id="Color" fill-rule="evenodd" clip-rule="evenodd" d="M27.4384 25.0249C31.6066 19.669 31.2293 11.9217 26.3063 6.99873C20.9747 1.66709 12.3304 1.66709 6.99873 6.99873C1.66709 12.3304 1.66709 20.9747 6.99873 26.3063C11.9217 31.2293 19.669 31.6066 25.0249 27.4384L33.0867 35.5002C33.7532 36.1666 34.8337 36.1666 35.5002 35.5002C36.1666 34.8337 36.1666 33.7532 35.5002 33.0867L27.4384 25.0249ZM23.8929 9.41218C27.8916 13.4109 27.8916 19.8941 23.8929 23.8929C19.8941 27.8916 13.4109 27.8916 9.41218 23.8929C5.41345 19.8941 5.41345 13.4109 9.41218 9.41218C13.4109 5.41345 19.8941 5.41345 23.8929 9.41218Z" fill="#272728"/>
</g>
</svg>
