<svg width="31" height="33" viewBox="0 0 31 33" fill="none" xmlns="http://www.w3.org/2000/svg">
<path id="Vector" d="M17.6678 17.7097C17.2786 17.7097 16.8982 17.5943 16.5746 17.378C16.251 17.1618 15.9988 16.8545 15.8498 16.4949C15.7009 16.1354 15.6619 15.7397 15.7379 15.358C15.8138 14.9763 16.0012 14.6257 16.2764 14.3505C16.5516 14.0753 16.9022 13.8878 17.2839 13.8119C17.6656 13.736 18.0613 13.775 18.4209 13.9239C18.7804 14.0728 19.0877 14.3251 19.304 14.6487C19.5202 14.9722 19.6356 15.3527 19.6356 15.7419C19.6356 16.2638 19.4283 16.7643 19.0592 17.1333C18.6902 17.5023 18.1897 17.7097 17.6678 17.7097ZM27.3112 11.5099C26.7846 8.51327 25.2327 5.7929 22.9213 3.81445C20.6099 1.83599 17.6827 0.722464 14.6407 0.664493C11.5987 0.606521 8.63121 1.60771 6.24609 3.49666C3.86098 5.38562 2.20661 8.04488 1.56617 11.0192L0.61377 16.3978H2.58154C4.93704 16.3833 7.2599 15.8456 9.38217 14.8236C9.2268 15.1049 9.14385 15.4205 9.14079 15.7419C9.13901 16.124 9.2485 16.4983 9.4559 16.8192C9.6633 17.1401 9.95964 17.3937 10.3087 17.549C10.6578 17.7043 11.0446 17.7546 11.4218 17.6937C11.799 17.6329 12.1504 17.4636 12.433 17.2064C12.7156 16.9493 12.9172 16.6154 13.0132 16.2456C13.1092 15.8757 13.0955 15.486 12.9737 15.1238C12.8519 14.7616 12.6273 14.4428 12.3273 14.2061C12.0273 13.9695 11.6649 13.8253 11.2844 13.7912C14.0833 12.0449 16.4537 9.69151 18.2201 6.90527C17.4476 6.47643 16.6079 6.18189 15.7368 6.0342C13.7191 9.0239 9.42546 13.2008 3.75303 13.7203L4.14002 11.5308C4.67573 9.09996 6.05804 6.93862 8.04012 5.43278C10.0222 3.92694 12.475 3.17464 14.9605 3.31022C17.446 3.4458 19.8025 4.46043 21.609 6.17293C23.4155 7.88543 24.5545 10.1843 24.8226 12.659L24.925 13.6364L25.8931 13.8108C26.3711 13.9043 26.7974 14.1717 27.0896 14.5613C27.3818 14.9509 27.5192 15.4351 27.4751 15.9201C27.431 16.4051 27.2087 16.8565 26.851 17.1871C26.4934 17.5176 26.0259 17.7038 25.5389 17.7097C25.4261 17.7097 24.1129 17.4801 24.1129 17.4801L23.743 18.5296C22.5413 21.9351 18.4943 25.5808 14.3882 25.5808C10.4185 25.5808 6.48692 22.145 5.15146 18.8208C4.30081 18.9499 3.44191 19.017 2.58154 19.0215H2.42412C2.50546 19.259 2.56318 19.4151 2.58154 19.4662C3.82849 22.6148 6.15303 25.2183 9.14079 26.8126V32.14H11.7645V27.8529C12.6205 28.0813 13.5022 28.1995 14.3882 28.2045C15.2739 28.2008 16.1556 28.0844 17.0119 27.8581V32.14H19.6356V26.8323C22.3434 25.3765 24.5176 23.0967 25.8433 20.3229C26.8741 20.2525 27.8511 19.8365 28.6163 19.1422C29.3814 18.4478 29.89 17.5156 30.0598 16.4964C30.2295 15.4772 30.0506 14.4305 29.5518 13.5257C29.053 12.6208 28.2636 11.9105 27.3112 11.5099Z" fill="white"/>
</svg>
