<svg xmlns="http://www.w3.org/2000/svg" width="72" height="68" viewBox="0 0 72 68" fill="none">
<path fill-rule="evenodd" clip-rule="evenodd" d="M66.4431 66.9642C66.283 66.9641 66.1263 66.9186 65.9911 66.8329C65.8559 66.7472 65.7479 66.6249 65.6794 66.4803L60.9558 56.4649C60.9028 56.3522 60.8752 56.2293 60.875 56.1048L60.8753 8.56601C60.8753 6.90029 62.2307 5.54492 63.8967 5.54492H68.9768C70.6427 5.54492 71.9982 6.90029 71.9982 8.56601V56.1048C71.9982 56.2292 71.9707 56.3516 71.9173 56.4642L67.2057 66.4796C67.1378 66.6245 67.0299 66.747 66.8949 66.8328C66.7598 66.9186 66.6031 66.9642 66.4431 66.9642Z" fill="white"/>
<path fill-rule="evenodd" clip-rule="evenodd" d="M71.1542 13.168H61.7187C61.4949 13.1679 61.2804 13.0789 61.1222 12.9207C60.964 12.7625 60.8751 12.5479 60.875 12.3242C60.875 11.8585 61.2534 11.4805 61.7187 11.4805H71.1542C71.378 11.4805 71.5925 11.5695 71.7507 11.7277C71.909 11.8859 71.9979 12.1004 71.998 12.3242C71.998 12.5479 71.909 12.7625 71.7508 12.9208C71.5926 13.079 71.378 13.1679 71.1542 13.168ZM66.4371 52.7464C66.2134 52.7463 65.9988 52.6573 65.8406 52.4991C65.6824 52.3409 65.5935 52.1263 65.5933 51.9026V16.5262C65.5933 16.0605 65.9718 15.6823 66.4371 15.6823C66.6609 15.6825 66.8754 15.7715 67.0336 15.9297C67.1918 16.0879 67.2808 16.3024 67.281 16.5262V51.9019C67.2809 52.1257 67.1921 52.3404 67.0338 52.4988C66.8756 52.6571 66.661 52.7462 66.4371 52.7464ZM71.1542 56.9484H61.7187C61.495 56.9482 61.2805 56.8593 61.1223 56.7011C60.9641 56.5428 60.8751 56.3283 60.875 56.1046C60.8753 55.8809 60.9642 55.6665 61.1224 55.5083C61.2806 55.3501 61.495 55.2612 61.7187 55.2609H71.1542C71.6199 55.2609 71.998 55.6393 71.998 56.1046C71.9979 56.3283 71.9089 56.5429 71.7507 56.7011C71.5925 56.8593 71.378 56.9483 71.1542 56.9484Z" fill="#213B3D"/>
<path fill-rule="evenodd" clip-rule="evenodd" d="M71.1542 17.3713H61.7187C61.4949 17.3711 61.2804 17.2822 61.1222 17.124C60.964 16.9657 60.8751 16.7512 60.875 16.5274C60.875 16.0618 61.2534 15.6836 61.7187 15.6836H71.1542C71.378 15.6837 71.5926 15.7726 71.7508 15.9308C71.909 16.0891 71.998 16.3037 71.998 16.5274C71.998 16.7512 71.909 16.9658 71.7508 17.124C71.5926 17.2823 71.378 17.3712 71.1542 17.3713ZM71.1542 52.7477H61.7187C61.495 52.7475 61.2805 52.6585 61.1223 52.5003C60.9641 52.3421 60.8751 52.1276 60.875 51.9038C60.8753 51.6802 60.9642 51.4657 61.1224 51.3076C61.2806 51.1494 61.495 51.0604 61.7187 51.0602H71.1542C71.6199 51.0602 71.998 51.4386 71.998 51.9038C71.9979 52.1276 71.9089 52.3421 71.7507 52.5004C71.5925 52.6586 71.378 52.7475 71.1542 52.7477Z" fill="#213B3D"/>
<path fill-rule="evenodd" clip-rule="evenodd" d="M66.4431 66.9642C66.283 66.9641 66.1263 66.9186 65.9911 66.8329C65.8559 66.7472 65.7479 66.625 65.6794 66.4803L60.9558 56.4649C60.9028 56.3522 60.8752 56.2293 60.875 56.1048L60.8753 8.56601C60.8753 6.90029 62.2307 5.54492 63.8967 5.54492H68.9768C70.6427 5.54492 71.9982 6.90029 71.9982 8.56601V56.1048C71.9982 56.2292 71.9707 56.3516 71.9173 56.4642L67.2057 66.4796C67.1378 66.6245 67.0299 66.747 66.8949 66.8328C66.7598 66.9187 66.6031 66.9642 66.4431 66.9642ZM62.5639 55.9162L66.4419 64.1403L70.3111 55.9162V8.56615C70.3111 7.83064 69.713 7.23245 68.9782 7.23245H63.8978C63.1623 7.23245 62.5648 7.83064 62.5648 8.56615V55.9162H62.5641H62.5639Z" fill="#13412E"/>
<rect x="1.35156" y="6.83984" width="51.5074" height="59.9359" rx="5" fill="white"/>
<path fill-rule="evenodd" clip-rule="evenodd" d="M66.4481 66.9634C66.2881 66.9633 66.1314 66.9177 65.9962 66.832C65.861 66.7464 65.7529 66.6241 65.6845 66.4794L63.7138 62.2997C63.6245 62.1097 63.609 61.8933 63.6705 61.6926C63.7319 61.4919 63.8658 61.3212 64.0461 61.2137C65.4957 60.3537 67.3989 60.3565 68.8446 61.2181C69.0246 61.3254 69.1583 61.4959 69.2195 61.6963C69.2807 61.8968 69.2651 62.1129 69.1757 62.3025L67.2104 66.4789C67.1425 66.6237 67.0348 66.7462 66.8997 66.832C66.7648 66.9179 66.6081 66.9634 66.4481 66.9634ZM65.6103 62.3628L66.4483 64.1394L67.2832 62.3649C66.7368 62.2077 66.1572 62.207 65.6103 62.3628ZM47.4377 67.7121H6.43891C2.88842 67.7121 0 64.8233 0 61.2729V12.3191C0 8.76858 2.88828 5.88086 6.4382 5.88086H13.3004C13.5242 5.88093 13.7388 5.96986 13.897 6.12809C14.0553 6.28633 14.1442 6.50092 14.1443 6.72469C14.1442 6.94844 14.0552 7.163 13.897 7.3212C13.7387 7.4794 13.5242 7.56831 13.3004 7.56838H6.43891C3.81948 7.56838 1.68823 9.69963 1.68823 12.3191V61.2729C1.68823 63.8931 3.81948 66.0235 6.43891 66.0235H47.4375C50.0575 66.0235 52.1881 63.8924 52.1881 61.2729V12.3191C52.1881 9.69963 50.0567 7.56838 47.4374 7.56838H40.575C40.3513 7.56827 40.1368 7.47935 39.9786 7.32115C39.8204 7.16295 39.7315 6.94842 39.7313 6.72469C39.7313 6.25888 40.1098 5.88086 40.575 5.88086H47.4377C50.9879 5.88086 53.8762 8.76914 53.8762 12.3191V61.2729C53.8762 64.8234 50.9879 67.7121 47.4377 67.7121ZM36.03 7.56838H29.2116C28.9878 7.56835 28.7731 7.47944 28.6149 7.3212C28.4566 7.16296 28.3677 6.94835 28.3676 6.72455C28.3677 6.50075 28.4567 6.28616 28.615 6.12795C28.7733 5.96974 28.9879 5.88086 29.2117 5.88086H36.03C36.2538 5.88097 36.4683 5.9699 36.6265 6.12809C36.7847 6.28629 36.8736 6.50082 36.8737 6.72455C36.8737 6.9483 36.7848 7.16287 36.6265 7.3211C36.4683 7.47933 36.2538 7.56827 36.03 7.56838ZM24.6654 7.56838H17.847C17.6232 7.56831 17.4086 7.47938 17.2504 7.32115C17.0921 7.16292 17.0032 6.94833 17.0031 6.72455C17.0033 6.5008 17.0922 6.28625 17.2504 6.12804C17.4087 5.96984 17.6232 5.88093 17.847 5.88086H24.6653C24.8891 5.88086 25.1037 5.96974 25.262 6.12795C25.4203 6.28616 25.5093 6.50075 25.5094 6.72455C25.5093 6.94838 25.4204 7.16301 25.2621 7.32125C25.1038 7.47949 24.8893 7.56838 24.6654 7.56838Z" fill="#13412E"/>
<path fill-rule="evenodd" clip-rule="evenodd" d="M15.5716 13.1624C13.853 13.1624 12.4549 11.7643 12.4549 10.0457V3.40191C12.4549 1.68343 13.853 0.285156 15.571 0.285156C17.2892 0.285156 18.6878 1.68343 18.6878 3.40191V10.0457C18.6878 11.7643 17.2901 13.1624 15.5716 13.1624ZM15.5716 1.97254C14.7833 1.97254 14.1424 2.61379 14.1424 3.40177V10.0454C14.1424 10.8336 14.7835 11.4745 15.571 11.4745V11.4749C16.3592 11.4749 16.9997 10.8336 16.9997 10.0457V3.40205C17.0006 2.61393 16.3596 1.97254 15.5716 1.97254ZM26.9362 13.1624C25.2176 13.1624 23.8195 11.7643 23.8195 10.0457L23.8192 3.40191C23.8192 1.68343 25.2174 0.285156 26.9359 0.285156C28.6545 0.285156 30.0527 1.68343 30.0527 3.40191V10.0457C30.053 11.7643 28.6547 13.1624 26.9362 13.1624ZM26.9362 1.97254C26.1479 1.97254 25.507 2.61379 25.507 3.40177V10.0454C25.507 10.8336 26.1481 11.4745 26.9362 11.4745V11.4749C27.7243 11.4749 28.3649 10.8336 28.3649 10.0457L28.3646 3.40191C28.3652 2.61379 27.7242 1.97254 26.9362 1.97254ZM38.2998 13.1624C36.5812 13.1624 35.1833 11.7643 35.1833 10.0457L35.1838 3.40191C35.1838 1.68343 36.5819 0.285156 38.3 0.285156C40.0182 0.285156 41.4167 1.68343 41.4167 3.40191V10.0457C41.4173 11.7643 40.0183 13.1624 38.2998 13.1624ZM38.2998 1.97254C37.5116 1.97254 36.871 2.61379 36.871 3.40177V10.0454C36.871 10.8336 37.5123 11.4745 38.2998 11.4745C39.0872 11.4745 39.7285 10.8335 39.7285 10.0454V3.40191C39.7288 2.61379 39.0879 1.97254 38.2998 1.97254ZM44.2536 31.6903H10.4063C10.1825 31.6902 9.96792 31.6013 9.80969 31.443C9.65145 31.2847 9.56254 31.0701 9.5625 30.8463C9.56261 30.6226 9.65155 30.408 9.80978 30.2498C9.96801 30.0916 10.1826 30.0027 10.4063 30.0026H44.2543C44.4781 30.0027 44.6927 30.0916 44.851 30.2498C45.0092 30.408 45.0982 30.6226 45.0983 30.8463C45.0983 31.312 44.7199 31.6903 44.2536 31.6903ZM44.2536 40.5836H10.4063C10.1826 40.5835 9.96804 40.4945 9.80982 40.3363C9.6516 40.1781 9.56265 39.9635 9.5625 39.7398C9.56265 39.516 9.65161 39.3015 9.80983 39.1433C9.96805 38.9851 10.1826 38.8962 10.4063 38.8961H44.2543C44.72 38.8961 45.0983 39.2745 45.0983 39.7398C45.098 39.9636 45.0089 40.1782 44.8505 40.3364C44.6922 40.4946 44.4775 40.5835 44.2536 40.5836ZM44.2536 49.4775H10.4063C10.1826 49.4773 9.96804 49.3884 9.80982 49.2302C9.6516 49.0719 9.56265 48.8574 9.5625 48.6337C9.56269 48.4099 9.65165 48.1954 9.80987 48.0372C9.96808 47.879 10.1826 47.7901 10.4063 47.79H44.2543C44.72 47.79 45.0983 48.1684 45.0983 48.6337C45.098 48.8575 45.0089 49.0721 44.8505 49.2303C44.6922 49.3885 44.4775 49.4774 44.2536 49.4775ZM44.2536 58.3701H16.321C16.0973 58.3699 15.8827 58.281 15.7245 58.1228C15.5663 57.9646 15.4774 57.75 15.4772 57.5263C15.4774 57.3025 15.5664 57.088 15.7246 56.9298C15.8828 56.7716 16.0973 56.6827 16.321 56.6826H44.2536C44.7193 56.6826 45.0976 57.061 45.0976 57.5263C45.0975 57.75 45.0085 57.9646 44.8502 58.1228C44.692 58.281 44.4774 58.37 44.2536 58.3701ZM38.3389 22.7969H10.4063C10.1826 22.7968 9.96797 22.7078 9.80973 22.5496C9.6515 22.3914 9.56257 22.1768 9.5625 21.953C9.56261 21.7293 9.65155 21.5147 9.80978 21.3565C9.96801 21.1983 10.1826 21.1094 10.4063 21.1093H38.3389C38.5627 21.1094 38.7773 21.1983 38.9356 21.3565C39.0938 21.5147 39.1828 21.7292 39.1829 21.953C39.1828 22.1768 39.0939 22.3914 38.9356 22.5497C38.7774 22.7079 38.5627 22.7968 38.3389 22.7969Z" fill="#213B3D"/>
<path fill-rule="evenodd" clip-rule="evenodd" d="M6.59645 61.2729V12.319C6.59645 10.4399 7.40539 8.74632 8.69365 7.56836H6.43804C3.81875 7.56836 1.6875 9.69961 1.6875 12.319V61.2729C1.6875 63.893 3.81861 66.0234 6.43804 66.0234H8.69295C7.40511 64.8451 6.59645 63.1518 6.59645 61.2729Z" fill="#6990BE"/>
</svg>