<svg xmlns="http://www.w3.org/2000/svg" width="37" height="37" viewBox="0 0 37 37" fill="none">
<path d="M28.9171 12.4305C28.2794 7.32861 23.9424 3.5 18.8008 3.5C13.6592 3.5 9.32221 7.32861 8.68447 12.4305L7.17578 24.5H5.30078V27.5H32.3008V24.5H30.4258L28.9171 12.4305ZM27.4018 24.5H10.1983L11.6613 12.8026L11.7094 12.4778C12.2974 9.04072 15.2821 6.5 18.8008 6.5L19.129 6.50739C22.6125 6.66458 25.5038 9.31111 25.9403 12.8026L27.4018 24.5Z" fill="black"/>
<path d="M18.8008 30.5C17.9724 30.5 17.3008 29.8284 17.3008 29H14.3008C14.3008 31.4853 16.3155 33.5 18.8008 33.5C21.2861 33.5 23.3008 31.4853 23.3008 29H20.3008C20.3008 29.8284 19.6292 30.5 18.8008 30.5Z" fill="black"/>
</svg>