<svg width="33" height="36" viewBox="0 0 33 36" fill="none" xmlns="http://www.w3.org/2000/svg">
<g id="pdf">
<g id="Subtract">
<path d="M23.6759 29.2132C23.0833 29.2132 21.9601 28.1368 20.774 25.8343C23.1452 26.9705 24.1436 27.9569 24.2684 28.5549C24.2999 28.6745 24.2999 28.8243 24.0817 29.0333C23.8945 29.1831 23.7697 29.2132 23.6759 29.2132Z" fill="#FF6C78"/>
<path d="M7.1399 23.2629C7.2647 23.1131 7.7015 22.7543 9.23055 22.7543C10.1041 22.7543 11.1644 22.8739 12.3815 23.1131C10.6967 24.0699 9.2615 24.6086 8.2631 24.6086C7.4519 24.6086 7.2023 24.2498 7.10845 23.891C6.99494 23.5103 7.08791 23.352 7.12932 23.2814C7.13344 23.2744 7.13705 23.2683 7.1399 23.2629Z" fill="#FF6C78"/>
<path d="M18.4033 23.5322C17.4359 23.1734 16.4065 22.8443 15.4081 22.5754C16.1292 22.0336 16.8366 21.4753 17.5297 20.901C17.7793 21.7679 18.0599 22.6649 18.4033 23.5322Z" fill="#FF6C78"/>
<path d="M18.4652 13.2763C18.6839 13.0371 18.9335 12.9175 19.2769 12.9175C19.4646 12.9175 19.6508 12.9471 19.9004 13.0371C20.774 13.2763 20.8988 13.6949 20.9303 13.8441C21.1799 14.8009 20.1505 16.5949 18.2471 18.5387C17.7479 16.0271 17.8103 14.0537 18.4652 13.2763Z" fill="#FF6C78"/>
<path fill-rule="evenodd" clip-rule="evenodd" d="M1.4615 0.598747C1.80445 0.239947 2.30365 0.0605469 2.7719 0.0605469H21.4919L32.0999 10.2265V34.1465C32.0999 34.5948 31.9127 35.0435 31.5383 35.4023C31.1954 35.7611 30.6961 35.9405 30.2279 35.9405H2.7719C2.30415 35.9405 1.8359 35.7611 1.4615 35.4023C1.0871 35.0737 0.899902 34.5953 0.899902 34.1465V1.85455C0.899902 1.40629 1.11805 0.957547 1.4615 0.598747ZM19.0268 25.0569C19.9628 27.1499 21.71 30.3791 23.6759 30.3791C24.1436 30.3791 24.5804 30.1997 24.9863 29.871C25.454 29.4223 25.6417 28.8841 25.5169 28.3162C25.2044 26.6715 22.3969 25.1765 20.0257 24.1599C19.4327 22.8141 18.9644 21.3493 18.59 19.9437C20.2439 18.3291 22.6775 15.5783 22.1473 13.5451C21.9911 12.9773 21.5233 12.2295 20.2439 11.8707C19.0897 11.5421 18.1223 11.7813 17.4983 12.5285C16.2188 14.0833 16.718 17.4623 17.1863 19.5553C16.1564 20.5121 15.0023 21.4091 13.8481 22.1865C12.0695 21.7679 10.4785 21.5583 9.23055 21.5583C7.67055 21.5583 6.6407 21.8875 6.1415 22.5453C5.8919 22.8443 5.67325 23.4121 5.92285 24.2197C6.23485 25.2061 7.0775 25.7745 8.2631 25.7745C10.166 25.7745 12.6311 24.3991 14.0977 23.4719C15.7511 23.8609 17.4673 24.4287 19.0268 25.0569Z" fill="#FF6C78"/>
</g>
<path id="Vector" d="M32.0999 10.2239H23.3629C22.8946 10.2239 22.3954 10.0446 22.0524 9.68589C21.6779 9.35683 21.4907 8.87855 21.4907 8.43041V0.0605469L32.0999 10.2239Z" fill="#FFBBC0"/>
</g>
</svg>
