<svg xmlns="http://www.w3.org/2000/svg" width="20" height="20" viewBox="0 0 20 20" fill="none">
<g clip-path="url(#clip0_5110_52730)">
<path d="M19.9993 5.20039C19.9993 11.5671 11.5576 20.0004 5.1993 20.0004C3.80763 20.0004 2.50763 19.4754 1.5493 18.5171L0.715968 17.5587C-0.250699 16.5921 -0.250699 14.9587 0.757635 13.9504C0.782635 13.9254 2.79097 12.3837 2.79097 12.3837C3.79097 11.4337 5.36597 11.4337 6.35764 12.3837L7.5743 13.3587C10.241 12.2254 12.1326 10.3254 13.3493 7.56706L12.3826 6.35039C11.4243 5.35872 11.4243 3.77539 12.3826 2.78372C12.3826 2.78372 13.9243 0.775391 13.9493 0.750391C14.9576 -0.257943 16.591 -0.257943 17.5993 0.750391L18.4743 1.50872C19.4743 2.50039 19.9993 3.80039 19.9993 5.19206V5.20039Z" fill="#4EB170"/>
</g>
<defs>
<clipPath id="clip0_5110_52730">
<rect width="20" height="20" fill="white"/>
</clipPath>
</defs>
</svg>
