<svg width="20" height="20" viewBox="0 0 20 20" fill="none" xmlns="http://www.w3.org/2000/svg">
<g clip-path="url(#clip0_7548_28104)">
<path d="M-0.00321007 5.20039C-0.00321007 11.5671 8.43846 20.0004 14.7968 20.0004C16.1885 20.0004 17.4885 19.4754 18.4468 18.5171L19.2801 17.5587C20.2468 16.5921 20.2468 14.9587 19.2385 13.9504C19.2135 13.9254 17.2051 12.3837 17.2051 12.3837C16.2051 11.4337 14.6301 11.4337 13.6385 12.3837L12.4218 13.3587C9.75513 12.2254 7.86346 10.3254 6.64679 7.56706L7.61346 6.35039C8.57179 5.35872 8.57179 3.77539 7.61346 2.78372C7.61346 2.78372 6.07179 0.775391 6.04679 0.750391C5.03846 -0.257943 3.40512 -0.257943 2.39679 0.750391L1.52179 1.50872C0.52179 2.50039 -0.00321007 3.80039 -0.00321007 5.19206V5.20039Z" fill="#C6C6C6"/>
</g>
<defs>
<clipPath id="clip0_7548_28104">
<rect width="20" height="20" fill="white" transform="matrix(-1 0 0 1 20 0)"/>
</clipPath>
</defs>
</svg>
