<svg xmlns="http://www.w3.org/2000/svg" width="27" height="36" viewBox="0 0 27 36" fill="none">
<path d="M0.000511091 1.80108L0.000509674 34.202C0.00153772 34.53 0.0920147 34.8516 0.262198 35.132C0.432381 35.4125 0.675825 35.6412 0.966332 35.7936C1.25684 35.946 1.5834 36.0163 1.91087 35.9968C2.23834 35.9774 2.55432 35.8691 2.82479 35.6834L26.2255 19.483C27.1957 18.8116 27.1957 17.1951 26.2255 16.5219L2.82479 0.321441C2.55489 0.13392 2.23875 0.0239538 1.91073 0.00348907C1.58272 -0.0169757 1.25537 0.0528441 0.964245 0.205363C0.673124 0.357881 0.429367 0.587265 0.259459 0.868592C0.0895519 1.14992 -7.69376e-06 1.47243 0.000511091 1.80108Z" fill="#77EFFF"/>
</svg>