<svg xmlns="http://www.w3.org/2000/svg" width="27" height="33" viewBox="0 0 27 33" fill="none">
<g clip-path="url(#clip0_5565_54914)">
<path d="M6.36719 8.00699V13.7307C6.36727 16.3152 7.05801 18.8517 8.36646 21.0724C9.6749 23.293 11.5525 25.1153 13.8009 26.3468C15.7759 25.2643 17.469 23.7243 18.7414 21.853C20.3691 19.4641 21.2388 16.6311 21.2352 13.7307V8.00699L13.8009 6.27344L6.36719 8.00699ZM18.3948 14.3652L12.4865 20.3364L9.20632 17.0195L10.5146 15.6973L12.4883 17.6921L17.0884 13.0431L18.3948 14.3652Z" fill="white"/>
<path d="M13.8005 0.5L0.800781 3.53201V13.7301C0.801485 17.7666 2.01231 21.7082 4.27369 25.0354C6.53507 28.3626 9.74088 30.9193 13.4686 32.3685L13.8005 32.4975L14.1329 32.3685C17.8607 30.9193 21.0665 28.3626 23.3279 25.0354C25.5893 21.7082 26.8001 17.7666 26.8008 13.7301V3.53201L13.8005 0.5ZM23.0852 13.7301C23.0897 17.0086 22.1066 20.2109 20.2664 22.9109C18.7276 25.1762 16.645 27.0096 14.2137 28.2394L13.8005 28.4476L13.3878 28.2394C10.7218 26.8921 8.47961 24.821 6.9127 22.2584C5.34578 19.6957 4.51602 16.7426 4.51639 13.7301V6.51913L13.8005 4.35359L23.0852 6.51913V13.7301Z" fill="white"/>
</g>
<defs>
<clipPath id="clip0_5565_54914">
<rect width="26" height="32" fill="white" transform="translate(0.800781 0.5)"/>
</clipPath>
</defs>
</svg>