<svg xmlns="http://www.w3.org/2000/svg" width="72" height="72" viewBox="0 0 72 72" fill="none">
<path d="M54 14.625H18C15.5147 14.625 13.5 16.6397 13.5 19.125V37.125C13.5 39.6103 15.5147 41.625 18 41.625H54C56.4853 41.625 58.5 39.6103 58.5 37.125V19.125C58.5 16.6397 56.4853 14.625 54 14.625Z" fill="white"/>
<path d="M54 14.625H48.375C49.5685 14.625 50.7131 15.0991 51.557 15.943C52.4009 16.7869 52.875 17.9315 52.875 19.125V33.75C52.875 34.9435 52.4009 36.0881 51.557 36.932C50.7131 37.7759 49.5685 38.25 48.375 38.25H18C16.8065 38.25 15.6619 37.7759 14.818 36.932C13.9741 36.0881 13.5 34.9435 13.5 33.75V37.125C13.5 38.3185 13.9741 39.4631 14.818 40.307C15.6619 41.1509 16.8065 41.625 18 41.625H54C55.1935 41.625 56.3381 41.1509 57.182 40.307C58.0259 39.4631 58.5 38.3185 58.5 37.125V19.125C58.5 17.9315 58.0259 16.7869 57.182 15.943C56.3381 15.0991 55.1935 14.625 54 14.625Z" fill="#72C3FE"/>
<path d="M36 39.375C40.9706 39.375 45 35.3456 45 30.375C45 25.4044 40.9706 21.375 36 21.375C31.0294 21.375 27 25.4044 27 30.375C27 35.3456 31.0294 39.375 36 39.375Z" fill="#FFCCBC"/>
<path d="M36 21.375C35.0443 21.3759 34.0948 21.5293 33.1875 21.8295C34.9874 22.4208 36.5546 23.5653 37.6657 25.0998C38.7768 26.6343 39.375 28.4805 39.375 30.375C39.375 32.2695 38.7768 34.1157 37.6657 35.6502C36.5546 37.1847 34.9874 38.3292 33.1875 38.9205C34.4245 39.3278 35.7351 39.4617 37.0289 39.313C38.3227 39.1644 39.5687 38.7366 40.6811 38.0594C41.7934 37.3822 42.7455 36.4715 43.4716 35.3904C44.1977 34.3094 44.6805 33.0835 44.8866 31.7977C45.0927 30.5118 45.0173 29.1965 44.6655 27.9426C44.3137 26.6888 43.6939 25.5262 42.849 24.5352C42.0041 23.5442 40.9541 22.7484 39.7716 22.2028C38.5891 21.6572 37.3023 21.3748 36 21.375Z" fill="#FFAB91"/>
<path d="M51.75 50.625V48.375C51.75 45.9881 50.8018 43.6989 49.114 42.011C47.4261 40.3232 45.1369 39.375 42.75 39.375H29.25C26.8631 39.375 24.5739 40.3232 22.886 42.011C21.1982 43.6989 20.25 45.9881 20.25 48.375V50.625H51.75Z" fill="#FBC472"/>
<path d="M42.75 39.375H37.125C39.5119 39.375 41.8011 40.3232 43.489 42.011C45.1768 43.6989 46.125 45.9881 46.125 48.375V50.625H51.75V48.375C51.75 45.9881 50.8018 43.6989 49.114 42.011C47.4261 40.3232 45.1369 39.375 42.75 39.375Z" fill="#EB6F15"/>
<path d="M58.5 50.625H13.5C12.3065 50.625 11.1619 51.0991 10.318 51.943C9.47411 52.7869 9 53.9315 9 55.125V66.375H63V55.125C63 53.9315 62.5259 52.7869 61.682 51.943C60.8381 51.0991 59.6935 50.625 58.5 50.625Z" fill="white"/>
<path d="M58.5 50.625H52.875C54.0685 50.625 55.2131 51.0991 56.057 51.943C56.9009 52.7869 57.375 53.9315 57.375 55.125V58.5C57.375 59.6935 56.9009 60.8381 56.057 61.682C55.2131 62.5259 54.0685 63 52.875 63H9V66.375H63V55.125C63 53.9315 62.5259 52.7869 61.682 51.943C60.8381 51.0991 59.6935 50.625 58.5 50.625Z" fill="#72C3FE"/>
<path d="M63 55.125V57.375H9V55.125C8.99984 54.534 9.11613 53.9488 9.34221 53.4027C9.5683 52.8567 9.89976 52.3606 10.3177 51.9427C10.7356 51.5248 11.2317 51.1933 11.7777 50.9672C12.3238 50.7411 12.909 50.6248 13.5 50.625H58.5C59.091 50.6248 59.6762 50.7411 60.2223 50.9672C60.7683 51.1933 61.2645 51.5248 61.6824 51.9426C62.1003 52.3605 62.4317 52.8567 62.6578 53.4027C62.8839 53.9488 63.0002 54.534 63 55.125Z" fill="white"/>
<path d="M58.5 50.625H52.875C53.466 50.6248 54.0512 50.7411 54.5973 50.9672C55.1433 51.1933 55.6395 51.5248 56.0574 51.9426C56.4753 52.3605 56.8067 52.8567 57.0328 53.4027C57.2589 53.9488 57.3752 54.534 57.375 55.125V57.375H63V55.125C63.0002 54.534 62.8839 53.9488 62.6578 53.4027C62.4317 52.8567 62.1003 52.3605 61.6824 51.9426C61.2645 51.5248 60.7683 51.1933 60.2223 50.9672C59.6762 50.7411 59.091 50.6248 58.5 50.625Z" fill="#72C3FE"/>
<path d="M58.5 49.5H52.875V48.375C52.8769 46.3714 52.2808 44.4128 51.163 42.75H54C55.4913 42.7482 56.921 42.1551 57.9755 41.1005C59.0301 40.046 59.6232 38.6163 59.625 37.125V19.125C59.6232 17.6337 59.0301 16.204 57.9755 15.1495C56.921 14.0949 55.4913 13.5018 54 13.5H50.625C50.3266 13.5 50.0405 13.6185 49.8295 13.8295C49.6185 14.0405 49.5 14.3266 49.5 14.625C49.5 14.9234 49.6185 15.2095 49.8295 15.4205C50.0405 15.6315 50.3266 15.75 50.625 15.75H54C54.8948 15.751 55.7527 16.1069 56.3854 16.7396C57.0181 17.3723 57.374 18.2302 57.375 19.125V37.125C57.374 38.0198 57.0181 38.8777 56.3854 39.5104C55.7527 40.1431 54.8948 40.499 54 40.5H49.1C47.3043 39.0434 45.0622 38.2489 42.75 38.25H42.3497C43.9818 36.9359 45.166 35.1479 45.739 33.1324C46.3121 31.1169 46.2457 28.9733 45.549 26.9971C44.8523 25.021 43.5597 23.3096 41.8494 22.0991C40.1391 20.8886 38.0954 20.2385 36 20.2385C33.9046 20.2385 31.8609 20.8886 30.1506 22.0991C28.4403 23.3096 27.1477 25.021 26.451 26.9971C25.7543 28.9733 25.6879 31.1169 26.261 33.1324C26.834 35.1479 28.0182 36.9359 29.6503 38.25H29.25C26.9378 38.2489 24.6957 39.0434 22.9 40.5H18C17.1052 40.499 16.2473 40.1431 15.6146 39.5104C14.9819 38.8777 14.626 38.0198 14.625 37.125V19.125C14.626 18.2302 14.9819 17.3723 15.6146 16.7396C16.2473 16.1069 17.1052 15.751 18 15.75H38.25C38.5484 15.75 38.8345 15.6315 39.0455 15.4205C39.2565 15.2095 39.375 14.9234 39.375 14.625C39.375 14.3266 39.2565 14.0405 39.0455 13.8295C38.8345 13.6185 38.5484 13.5 38.25 13.5H18C16.5087 13.5018 15.079 14.0949 14.0245 15.1495C12.9699 16.204 12.3768 17.6337 12.375 19.125V37.125C12.3768 38.6163 12.9699 40.046 14.0245 41.1005C15.079 42.1551 16.5087 42.7482 18 42.75H20.837C19.7192 44.4128 19.1231 46.3714 19.125 48.375V49.5H13.5C12.0087 49.5018 10.579 50.0949 9.52446 51.1495C8.46994 52.204 7.87675 53.6337 7.875 55.125V66.375C7.875 66.6734 7.99353 66.9595 8.20451 67.1705C8.41548 67.3815 8.70163 67.5 9 67.5C9.29837 67.5 9.58452 67.3815 9.79549 67.1705C10.0065 66.9595 10.125 66.6734 10.125 66.375V58.5H61.875V66.375C61.875 66.6734 61.9935 66.9595 62.2045 67.1705C62.4155 67.3815 62.7016 67.5 63 67.5C63.2984 67.5 63.5845 67.3815 63.7955 67.1705C64.0065 66.9595 64.125 66.6734 64.125 66.375V55.125C64.1232 53.6337 63.5301 52.204 62.4755 51.1495C61.421 50.0949 59.9913 49.5018 58.5 49.5ZM28.125 30.375C28.125 28.8175 28.5869 27.2949 29.4522 25.9999C30.3175 24.7048 31.5474 23.6955 32.9864 23.0994C34.4253 22.5034 36.0087 22.3475 37.5363 22.6513C39.0639 22.9552 40.4671 23.7052 41.5685 24.8065C42.6698 25.9079 43.4198 27.3111 43.7237 28.8387C44.0275 30.3663 43.8716 31.9497 43.2756 33.3886C42.6795 34.8276 41.6702 36.0575 40.3751 36.9228C39.0801 37.7881 37.5575 38.25 36 38.25C33.9121 38.2477 31.9105 37.4172 30.4341 35.9409C28.9578 34.4645 28.1273 32.4629 28.125 30.375ZM21.375 48.375C21.3774 46.2872 22.2079 44.2855 23.6842 42.8092C25.1605 41.3329 27.1622 40.5024 29.25 40.5H42.75C44.8378 40.5024 46.8395 41.3329 48.3158 42.8092C49.7921 44.2855 50.6226 46.2872 50.625 48.375V49.5H21.375V48.375ZM13.5 51.75H58.5C59.3948 51.751 60.2527 52.1069 60.8854 52.7396C61.5181 53.3723 61.874 54.2302 61.875 55.125V56.25H10.125V55.125C10.126 54.2302 10.4819 53.3723 11.1146 52.7396C11.7473 52.1069 12.6052 51.751 13.5 51.75ZM48.375 22.5C48.375 22.2016 48.4935 21.9155 48.7045 21.7045C48.9155 21.4935 49.2016 21.375 49.5 21.375H54C54.2225 21.375 54.44 21.441 54.625 21.5646C54.81 21.6882 54.9542 21.8639 55.0393 22.0695C55.1244 22.275 55.1467 22.5012 55.1033 22.7194C55.0599 22.9376 54.9527 23.1381 54.7954 23.2954L52.2158 25.875H54C54.2984 25.875 54.5845 25.9935 54.7955 26.2045C55.0065 26.4155 55.125 26.7016 55.125 27C55.125 27.2984 55.0065 27.5845 54.7955 27.7955C54.5845 28.0065 54.2984 28.125 54 28.125H49.5C49.2775 28.125 49.06 28.059 48.875 27.9354C48.69 27.8118 48.5458 27.6361 48.4607 27.4305C48.3756 27.225 48.3533 26.9988 48.3967 26.7806C48.4401 26.5624 48.5473 26.3619 48.7046 26.2046L51.2842 23.625H49.5C49.2016 23.625 48.9155 23.5065 48.7045 23.2955C48.4935 23.0845 48.375 22.7984 48.375 22.5ZM40.5 12.375C40.5 12.0766 40.6185 11.7905 40.8295 11.5795C41.0405 11.3685 41.3266 11.25 41.625 11.25H47.25C47.4725 11.25 47.69 11.316 47.875 11.4396C48.06 11.5632 48.2042 11.7389 48.2893 11.9445C48.3744 12.15 48.3967 12.3762 48.3533 12.5944C48.3099 12.8126 48.2027 13.0131 48.0454 13.1704L44.3408 16.875H47.25C47.5484 16.875 47.8345 16.9935 48.0455 17.2045C48.2565 17.4155 48.375 17.7016 48.375 18C48.375 18.2984 48.2565 18.5845 48.0455 18.7955C47.8345 19.0065 47.5484 19.125 47.25 19.125H41.625C41.4025 19.125 41.185 19.059 41 18.9354C40.815 18.8118 40.6708 18.6361 40.5857 18.4305C40.5006 18.225 40.4783 17.9988 40.5217 17.7806C40.5651 17.5624 40.6723 17.3619 40.8296 17.2046L44.5342 13.5H41.625C41.3266 13.5 41.0405 13.3815 40.8295 13.1705C40.6185 12.9595 40.5 12.6734 40.5 12.375ZM50.625 3.375C50.625 3.07663 50.7435 2.79048 50.9545 2.5795C51.1655 2.36853 51.4516 2.25 51.75 2.25H58.5C58.7225 2.25 58.94 2.31598 59.125 2.43959C59.31 2.5632 59.4542 2.73889 59.5393 2.94445C59.6244 3.15001 59.6467 3.3762 59.6033 3.59441C59.5599 3.81262 59.4527 4.01306 59.2954 4.17037L54.4658 9H58.5C58.7984 9 59.0845 9.11853 59.2955 9.3295C59.5065 9.54048 59.625 9.82663 59.625 10.125C59.625 10.4234 59.5065 10.7095 59.2955 10.9205C59.0845 11.1315 58.7984 11.25 58.5 11.25H51.75C51.5275 11.25 51.31 11.184 51.125 11.0604C50.94 10.9368 50.7958 10.7611 50.7107 10.5555C50.6256 10.35 50.6033 10.1238 50.6467 9.90559C50.6901 9.68738 50.7973 9.48694 50.9546 9.32963L55.7842 4.5H51.75C51.4516 4.5 51.1655 4.38147 50.9545 4.1705C50.7435 3.95952 50.625 3.67337 50.625 3.375Z" fill="black"/>
</svg>