<svg xmlns="http://www.w3.org/2000/svg" width="20" height="20" viewBox="0 0 20 20" fill="none">
<g clip-path="url(#clip0_5110_52728)">
<path d="M10.8333 -0.00390625H4.16667C1.86917 -0.00390625 0 1.86526 0 4.16276V14.8744C0 15.5353 0.3625 16.1403 0.945 16.4528C1.21 16.5953 1.50083 16.6653 1.79083 16.6653C2.1375 16.6653 2.48333 16.5644 2.78333 16.3653L6.08583 14.1628H10.8333C13.1308 14.1628 15 12.2936 15 9.99609V4.16276C15 1.86526 13.1308 -0.00390625 10.8333 -0.00390625ZM20 7.49609V18.2078C20 18.8686 19.6375 19.4736 19.055 19.7861C18.79 19.9286 18.4992 19.9986 18.2092 19.9994C17.8625 19.9994 17.5167 19.8986 17.2175 19.6994L13.9142 17.4961H9.16667C7.95833 17.4961 6.8775 16.9703 6.11583 16.1461L6.59 15.8294H10.8333C14.0492 15.8294 16.6667 13.2119 16.6667 9.99609V4.16276C16.6667 3.90609 16.6442 3.65609 16.6125 3.40776C18.5383 3.77443 20 5.46526 20 7.49609Z" fill="#4EB170"/>
</g>
<defs>
<clipPath id="clip0_5110_52728">
<rect width="20" height="20" fill="white"/>
</clipPath>
</defs>
</svg>
