<svg width="20" height="20" viewBox="0 0 20 20" fill="none" xmlns="http://www.w3.org/2000/svg">
<g clip-path="url(#clip0_913_17832)">
<rect width="20" height="20" fill="white" fill-opacity="0.01"/>
<g clip-path="url(#clip1_913_17832)">
<path d="M14.174 6.4502H13.1272C12.8995 6.4502 12.683 6.55957 12.549 6.74707L9.04011 11.6131L7.45083 9.40778C7.3169 9.22252 7.10261 9.11091 6.8727 9.11091H5.82583C5.68074 9.11091 5.59592 9.27609 5.68074 9.39439L8.46199 13.2515C8.52769 13.3432 8.61431 13.418 8.71465 13.4695C8.815 13.5211 8.92618 13.5479 9.039 13.5479C9.15181 13.5479 9.263 13.5211 9.36334 13.4695C9.46369 13.418 9.5503 13.3432 9.61601 13.2515L14.3169 6.73368C14.404 6.61537 14.3191 6.4502 14.174 6.4502Z" fill="#31CE41"/>
<path d="M10 0C4.47768 0 0 4.47768 0 10C0 15.5223 4.47768 20 10 20C15.5223 20 20 15.5223 20 10C20 4.47768 15.5223 0 10 0ZM10 18.3036C5.41518 18.3036 1.69643 14.5848 1.69643 10C1.69643 5.41518 5.41518 1.69643 10 1.69643C14.5848 1.69643 18.3036 5.41518 18.3036 10C18.3036 14.5848 14.5848 18.3036 10 18.3036Z" fill="#31CE41"/>
</g>
</g>
<defs>
<clipPath id="clip0_913_17832">
<rect width="20" height="20" fill="white"/>
</clipPath>
<clipPath id="clip1_913_17832">
<rect width="20" height="20" fill="white"/>
</clipPath>
</defs>
</svg>
