<svg xmlns="http://www.w3.org/2000/svg" width="74" height="72" viewBox="0 0 74 72" fill="none">
<path d="M40.0935 56.1554V56.1553V15.8289C40.0935 15.4134 39.9304 15.0662 39.6597 14.8286C39.3986 14.5995 39.0656 14.4962 38.75 14.4962C38.4343 14.4962 38.1014 14.5995 37.8403 14.8286C37.5695 15.0662 37.4065 15.4134 37.4065 15.8289C37.4065 16.4064 37.0677 17.0819 36.2786 17.7979C35.4963 18.5077 34.3254 19.2051 32.8067 19.8191C29.7729 21.0455 25.4369 21.9041 20.2991 21.9041C15.1613 21.9041 10.825 21.0455 7.79103 19.8192C6.27222 19.2053 5.10123 18.5078 4.31891 17.798C3.52974 17.082 3.19091 16.4064 3.19091 15.8289C3.19091 15.4134 3.02789 15.0661 2.75713 14.8285C2.49605 14.5994 2.16311 14.4961 1.84741 14.4961C1.5317 14.4961 1.19877 14.5994 0.937686 14.8285C0.666928 15.0661 0.503906 15.4134 0.503906 15.8289V56.156C0.503906 57.4784 1.11124 58.6925 2.13855 59.7498C3.16275 60.8039 4.62337 61.7245 6.39697 62.484C9.94557 64.0036 14.8397 64.9181 20.2984 64.9181C25.7571 64.9181 30.6513 64.0036 34.1999 62.4839C35.9735 61.7244 37.4342 60.8038 38.4585 59.7496C39.4859 58.6921 40.0933 57.4779 40.0935 56.1554ZM37.3888 55.8782L37.3888 55.9088L37.3925 55.9392C37.4676 56.5534 37.1827 57.2513 36.4231 57.9918C35.6662 58.7296 34.4912 59.4524 32.95 60.0875C29.8725 61.3557 25.4405 62.2311 20.2984 62.2311C15.1606 62.2311 10.8243 61.3727 7.79035 60.1463C6.27154 59.5324 5.10055 58.835 4.31823 58.1252C3.52908 57.4092 3.19023 56.7336 3.19023 56.156V55.5943L3.19022 20.3504C4.92057 21.6736 7.28375 22.6692 9.94883 23.3605C13.0891 24.175 16.6978 24.5797 20.298 24.5797C23.8982 24.5796 27.5069 24.175 30.6472 23.3605C33.312 22.6693 35.6749 21.6738 37.4053 20.3508L37.3888 55.8782Z" fill="#3A3435" stroke="#3A3435"/>
<path fill-rule="evenodd" clip-rule="evenodd" d="M20.2984 24.092C9.47877 24.092 1.00391 20.4626 1.00391 15.83C1.00391 11.1973 9.47877 7.56836 20.2984 7.56836C31.1181 7.56836 39.5928 11.1971 39.5928 15.83C39.5928 20.4628 31.1181 24.092 20.2984 24.092ZM20.2984 9.25536C9.92216 9.25536 2.69023 12.7207 2.69023 15.8303C2.69023 18.94 9.92199 22.405 20.2984 22.405C30.6747 22.405 37.9058 18.9397 37.9058 15.83C37.9058 12.7204 30.6745 9.25536 20.2984 9.25536Z" fill="#3A3435" stroke="#3A3435"/>
<path fill-rule="evenodd" clip-rule="evenodd" d="M20.2981 18.7651C9.62072 18.7651 9.61807 12.8927 20.2981 12.8927C30.9845 12.8927 30.9829 18.7651 20.2981 18.7651ZM14.0472 15.8285C15.5634 17.4562 25.0324 17.454 26.5492 15.8285C25.0349 14.2029 15.5615 14.2029 14.0472 15.8285ZM20.2981 59.5186C19.1964 59.5186 19.4545 58.0998 19.4545 56.9873C19.4545 55.8769 21.1415 55.8774 21.1415 56.9873C21.1415 58.1004 21.3997 59.5186 20.2981 59.5186ZM20.2981 52.7706C19.1964 52.7706 19.4545 51.3521 19.4545 50.24C19.4545 49.1296 21.1415 49.13 21.1415 50.24C21.1415 51.3516 21.3997 52.7706 20.2981 52.7706ZM20.2981 46.0226C19.1964 46.0226 19.4545 44.6039 19.4545 43.4913C19.4545 42.3809 21.1415 42.3814 21.1415 43.4913C21.1415 44.6046 21.3997 46.0226 20.2981 46.0226ZM20.2981 39.2746C19.1964 39.2746 19.4545 37.8561 19.4545 36.7442C19.4545 35.6335 21.1415 35.6335 21.1415 36.7442C21.1415 37.8558 21.3997 39.2746 20.2981 39.2746ZM20.2981 32.5259C19.1964 32.5259 19.4545 31.1081 19.4545 29.9955C19.4545 28.8849 21.1415 28.8849 21.1415 29.9955C21.1415 31.1092 21.3997 32.5259 20.2981 32.5259ZM20.2981 25.7779C19.1964 25.7779 19.4545 24.3601 19.4545 23.2475C19.4545 22.1369 21.1415 22.1369 21.1415 23.2475C21.1415 24.3601 21.3997 25.7779 20.2981 25.7779ZM57.7494 51.6264C57.2839 51.6264 56.906 51.248 56.906 50.7828V8.41083C56.906 7.30056 58.593 7.30056 58.593 8.41083V50.7833C58.593 51.2487 58.2145 51.6264 57.7494 51.6264Z" fill="#3A3435"/>
<path fill-rule="evenodd" clip-rule="evenodd" d="M14.0469 15.8288C15.563 17.4565 25.0321 17.4543 26.5489 15.8288C25.0346 14.2032 15.5612 14.2032 14.0469 15.8288ZM39.5927 15.8288V55.4992H69.3268C69.7748 54.1545 71.2937 52.8396 71.2937 51.9854C71.2937 50.945 69.1833 49.4108 69.1833 47.6286C69.1833 45.8467 71.2937 44.3106 71.2937 43.2712C71.2937 42.231 69.1833 40.6966 69.1833 38.9145C69.1833 37.1322 71.2937 35.5969 71.2937 34.5571C71.2937 33.5165 69.1833 31.9826 69.1833 30.1997C69.1833 28.4178 71.2937 26.8831 71.2937 25.8422C71.2937 24.8019 69.1833 23.2673 69.1833 21.4855C69.1833 19.7037 71.2937 18.1676 71.2937 17.1281C71.2937 16.0874 69.1833 14.5528 69.1833 12.7707C69.1833 11.405 70.3221 10.3412 70.9764 9.25669L58.5927 9.25635V50.7835C58.5927 51.249 58.2142 51.6267 57.7491 51.6267C57.2836 51.6267 56.9057 51.2483 56.9057 50.7832V9.25636L32.1215 9.25586C36.6677 10.7451 39.5598 13.0933 39.5917 15.784C39.5924 15.7988 39.5927 15.8137 39.5927 15.8288Z" fill="#E8F7FB"/>
<path fill-rule="evenodd" clip-rule="evenodd" d="M20.2996 22.4035C30.6759 22.4035 37.907 18.9382 37.907 15.8286C37.907 12.7189 30.6757 9.25391 20.2996 9.25391C9.95788 9.25391 2.73957 12.6963 2.69157 15.7978C2.6919 15.8078 2.69224 15.7869 2.69157 15.7978C2.69157 18.9075 9.92316 22.4035 20.2996 22.4035ZM20.2996 12.8925C30.9861 12.8925 30.9844 18.7648 20.2996 18.7648C9.62226 18.7648 9.6196 12.8925 20.2996 12.8925Z" fill="#C5D1D7"/>
<path fill-rule="evenodd" clip-rule="evenodd" d="M37.8294 19.3411C35.9944 21.0577 33.0673 22.308 29.6415 23.0919C29.6388 23.0924 29.6441 23.0913 29.6415 23.0919C27.1248 23.6756 24.2453 24.0284 21.1654 24.084C21.1883 24.9633 21.135 25.7788 20.2996 25.7788C19.4641 25.7788 19.4107 24.9633 19.4336 24.084C16.3817 24.0289 13.5345 23.6838 11.0344 23.1095C11.0283 23.1082 11.0407 23.1109 11.0344 23.1095C7.35303 22.2618 4.40747 20.9131 2.69141 19.2676V55.5949V56.1565C2.69141 59.2668 9.92266 62.7317 20.2996 62.7317C30.6851 62.7317 38.296 59.1991 37.89 55.879L37.9069 19.2676C37.8814 19.2922 37.8555 19.3167 37.8294 19.3411ZM19.456 50.2409C19.456 49.1305 21.143 49.131 21.143 50.2409C21.143 51.3526 21.4012 52.7715 20.2996 52.7715C19.198 52.7715 19.456 51.3531 19.456 50.2409ZM21.143 43.4923C21.143 44.6055 21.4012 46.0235 20.2996 46.0235C19.198 46.0235 19.456 44.6049 19.456 43.4923C19.456 42.3818 21.143 42.3823 21.143 43.4923ZM21.143 36.7451C21.143 37.8567 21.4012 39.2755 20.2996 39.2755C19.198 39.2755 19.456 37.857 19.456 36.7451C19.456 35.6345 21.143 35.6345 21.143 36.7451ZM21.143 29.9964C21.143 31.1101 21.4012 32.5268 20.2996 32.5268C19.198 32.5268 19.456 31.109 19.456 29.9964C19.456 28.8858 21.143 28.8858 21.143 29.9964ZM19.456 56.9883C19.456 55.8778 21.143 55.8783 21.143 56.9883C21.143 58.1014 21.4012 59.5195 20.2996 59.5195C19.198 59.5195 19.456 58.1007 19.456 56.9883Z" fill="#E8F7FB"/>
<path d="M38.7429 57.4361H70.0267C70.6309 57.4361 71.1208 56.946 71.1208 56.3423C71.1208 56.158 71.2179 55.919 71.4128 55.6059C71.5524 55.3815 71.7244 55.1454 71.9118 54.888C71.9824 54.7911 72.0552 54.6912 72.1292 54.5878C72.6532 53.8562 73.2312 52.9658 73.2312 51.9847C73.2312 51.0036 72.6531 50.1137 72.1292 49.3825C72.0553 49.2793 71.9827 49.1796 71.9122 49.083C71.7246 48.8255 71.5525 48.5893 71.4128 48.3648C71.218 48.0517 71.1208 47.8126 71.1208 47.628C71.1208 47.4435 71.218 47.2045 71.4128 46.8913C71.5524 46.6669 71.7245 46.4307 71.912 46.1732C71.9826 46.0764 72.0553 45.9766 72.1292 45.8733C72.6532 45.1418 73.2312 44.2516 73.2312 43.2706C73.2312 42.2895 72.6531 41.3996 72.1292 40.6683C72.0553 40.5652 71.9827 40.4655 71.9122 40.3688C71.7246 40.1114 71.5525 39.8751 71.4128 39.6507C71.218 39.3376 71.1208 39.0985 71.1208 38.9138C71.1208 38.7294 71.218 38.4903 71.4128 38.1772C71.5524 37.9527 71.7245 37.7165 71.912 37.4591C71.9826 37.3623 72.0553 37.2625 72.1292 37.1592C72.6532 36.4277 73.2312 35.5374 73.2312 34.5564C73.2312 33.5748 72.6532 32.6849 72.1292 31.9536C72.0553 31.8505 71.9827 31.7508 71.9122 31.6542C71.7246 31.3967 71.5525 31.1605 71.4128 30.936C71.218 30.623 71.1208 30.3838 71.1208 30.199C71.1208 30.0144 71.218 29.7753 71.4128 29.4622C71.5525 29.2376 71.7246 29.0014 71.9122 28.7439C71.9827 28.6471 72.0553 28.5474 72.1292 28.4442C72.6531 27.7128 73.2312 26.8227 73.2312 25.8416C73.2312 24.8602 72.6532 23.9701 72.1292 23.2387C72.0552 23.1354 71.9826 23.0357 71.9121 22.9389C71.7245 22.6815 71.5524 22.4453 71.4128 22.2209C71.218 21.9078 71.1208 21.6687 71.1208 21.4842C71.1208 21.2996 71.218 21.0605 71.4128 20.7473C71.5525 20.5228 71.7246 20.2865 71.9122 20.029C71.9827 19.9323 72.0553 19.8326 72.1292 19.7294C72.6531 18.998 73.2312 18.1079 73.2312 17.1268C73.2312 16.1452 72.6532 15.2553 72.1292 14.524C72.0553 14.4208 71.9827 14.3212 71.9122 14.2245C71.7246 13.9671 71.5525 13.7308 71.4128 13.5063C71.218 13.1933 71.1208 12.9542 71.1208 12.7694C71.1208 12.5844 71.218 12.3451 71.4128 12.0319C71.5526 11.8071 71.7249 11.5706 71.9128 11.3128C71.983 11.2163 72.0555 11.1169 72.1292 11.014C72.6531 10.2826 73.2312 9.39282 73.2312 8.41194C73.2312 7.80827 72.7414 7.31836 72.1378 7.31836H20.2978C19.9512 7.31836 19.6734 7.45258 19.4852 7.66703C19.3012 7.87665 19.2148 8.14856 19.2148 8.41186C19.2148 8.67516 19.3012 8.94707 19.4852 9.15669C19.6734 9.37114 19.9512 9.50536 20.2978 9.50537C20.2978 9.50537 20.2978 9.50537 20.2978 9.50537L70.5159 9.50652C70.4215 9.64342 70.3213 9.78209 70.2181 9.92413C70.2029 9.9451 70.1876 9.96615 70.1722 9.98727C69.9888 10.2395 69.7977 10.5023 69.6242 10.7733C69.2483 11.3601 68.9335 12.0166 68.9335 12.7705C68.9335 13.7516 69.5116 14.6415 70.0355 15.3729C70.1093 15.4759 70.1818 15.5754 70.2521 15.672C70.4399 15.9296 70.6121 16.1661 70.7519 16.3907C70.9467 16.7038 71.0439 16.9431 71.0439 17.1279C71.0439 17.3125 70.9467 17.5515 70.7519 17.8647C70.6122 18.0892 70.4401 18.3255 70.2525 18.583C70.182 18.6798 70.1094 18.7795 70.0355 18.8827C69.5115 19.6142 68.9335 20.5044 68.9335 21.4853C68.9335 22.4663 69.5116 23.3561 70.0355 24.0874C70.1093 24.1904 70.1819 24.29 70.2522 24.3865C70.4399 24.6441 70.6122 24.8805 70.7519 25.1051C70.9467 25.4182 71.0439 25.6573 71.0439 25.8421C71.0439 26.027 70.9467 26.2663 70.7519 26.5794C70.6121 26.8042 70.4398 27.0407 70.252 27.2984C70.1817 27.3949 70.1092 27.4944 70.0355 27.5973C69.5116 28.3287 68.9335 29.2185 68.9335 30.1995C68.9335 31.181 69.5115 32.0709 70.0355 32.8022C70.1094 32.9054 70.182 33.005 70.2524 33.1017C70.4401 33.3592 70.6122 33.5954 70.7519 33.8199C70.9467 34.133 71.0439 34.3721 71.0439 34.5569C71.0439 34.7415 70.9467 34.9806 70.7519 35.2937C70.6122 35.5182 70.4401 35.7545 70.2525 36.0119C70.1821 36.1087 70.1094 36.2084 70.0355 36.3116C69.5115 37.0431 68.9335 37.9331 68.9335 38.9143C68.9335 39.8954 69.5116 40.7853 70.0355 41.5165C70.1094 41.6196 70.1819 41.7192 70.2523 41.8158C70.44 42.0734 70.6122 42.3097 70.7519 42.5342C70.9467 42.8472 71.0439 43.0864 71.0439 43.2711C71.0439 43.4555 70.9467 43.6946 70.7519 44.0077C70.6123 44.2322 70.4402 44.4684 70.2526 44.7259C70.1821 44.8227 70.1094 44.9225 70.0355 45.0257C69.5115 45.7573 68.9335 46.6475 68.9335 47.6285C68.9335 48.6096 69.5116 49.4994 70.0355 50.2306C70.1093 50.3337 70.1819 50.4333 70.2523 50.5299C70.44 50.7874 70.6122 51.0237 70.7519 51.2483C70.9467 51.5613 71.0439 51.8005 71.0439 51.9852C71.0439 52.1319 70.9761 52.3274 70.8319 52.5825C70.6905 52.8329 70.4949 53.1082 70.2758 53.4118C70.2553 53.4401 70.2347 53.4687 70.2139 53.4974C69.8337 54.0232 69.3973 54.6267 69.152 55.249H38.7429C38.3963 55.249 38.1187 55.3833 37.9305 55.5977C37.7465 55.8074 37.6602 56.0792 37.6602 56.3425C37.6601 56.6058 37.7464 56.8777 37.9304 57.0874C38.1186 57.3018 38.3963 57.4361 38.7429 57.4361Z" fill="#3A3435" stroke="#3A3435" stroke-width="0.5"/>
</svg>