<svg width="36" height="36" viewBox="0 0 36 36" fill="none" xmlns="http://www.w3.org/2000/svg">
<circle cx="18" cy="18" r="16.5" stroke="#27C195" stroke-width="3"/>
<path d="M25.8027 14.584C25.8027 14.7793 25.8027 14.9355 25.8027 15.1309C25.8027 20.5605 21.7012 26.7715 14.1621 26.7715C11.8184 26.7715 9.66992 26.1074 7.87305 24.9355C8.18555 24.9746 8.49805 25.0137 8.84961 25.0137C10.7637 25.0137 12.5215 24.3496 13.9277 23.2559C12.1309 23.2168 10.6074 22.0449 10.0996 20.4043C10.373 20.4434 10.6074 20.4824 10.8809 20.4824C11.2324 20.4824 11.623 20.4043 11.9355 20.3262C10.0605 19.9355 8.6543 18.2949 8.6543 16.3027V16.2637C9.20117 16.5762 9.86523 16.7324 10.5293 16.7715C9.39648 16.0293 8.69336 14.7793 8.69336 13.373C8.69336 12.5918 8.88867 11.8887 9.24023 11.3027C11.2715 13.7637 14.3184 15.4043 17.7168 15.5996C17.6387 15.2871 17.5996 14.9746 17.5996 14.6621C17.5996 12.3965 19.4355 10.5605 21.7012 10.5605C22.873 10.5605 23.9277 11.0293 24.709 11.8496C25.6074 11.6543 26.5059 11.3027 27.2871 10.834C26.9746 11.8105 26.3496 12.5918 25.4902 13.0996C26.3105 13.0215 27.1309 12.7871 27.834 12.4746C27.2871 13.2949 26.584 13.998 25.8027 14.584Z" fill="#27C195"/>
</svg>
