<svg width="24" height="24" viewBox="0 0 24 24" fill="none" xmlns="http://www.w3.org/2000/svg">
<path d="M16.3798 6.96139L15.75 12H8.25L7.62017 6.96139C7.29087 4.32693 9.34504 2 12 2C14.655 2 16.7091 4.32693 16.3798 6.96139ZM14.3953 6.71332C14.5754 5.27257 13.452 4 12 4C10.548 4 9.42464 5.27257 9.60473 6.71332L10.0156 10H13.9844L14.3953 6.71332Z" fill="#00858E"/>
<path d="M3 15C8.72979 12.4534 15.2702 12.4534 21 15L22 22H2L3 15ZM4.30602 20H19.694L19.1815 16.4125C14.5571 14.6493 9.44295 14.6493 4.81852 16.4125L4.30602 20Z" fill="#00858E"/>
</svg>
